<?xml version="1.0" encoding="UTF-8"?>
<!DOCTYPE svg PUBLIC "-//W3C//DTD SVG 1.1//EN" "http://www.w3.org/Graphics/SVG/1.1/DTD/svg11.dtd">
<svg xmlns="http://www.w3.org/2000/svg" version="1.1" width="3840px" height="2160px" style="shape-rendering:geometricPrecision; text-rendering:geometricPrecision; image-rendering:optimizeQuality; fill-rule:evenodd; clip-rule:evenodd" xmlns:xlink="http://www.w3.org/1999/xlink">
<g><path style="opacity:0.981" fill="#000000" d="M 953.5,585.5 C 1094.83,585.5 1236.17,585.5 1377.5,585.5C 1377.83,619.406 1377.5,653.24 1376.5,687C 1270.17,687.5 1163.83,687.667 1057.5,687.5C 1057.5,758.833 1057.5,830.167 1057.5,901.5C 1139.17,901.333 1220.83,901.5 1302.5,902C 1303.16,918.594 1303.5,935.261 1303.5,952C 1303.5,968.739 1303.16,985.406 1302.5,1002C 1220.83,1002.5 1139.17,1002.67 1057.5,1002.5C 1057.67,1128.17 1057.5,1253.83 1057,1379.5C 1023.02,1379.82 988.516,1379.82 953.5,1379.5C 953.5,1114.83 953.5,850.167 953.5,585.5 Z"/></g>
<g><path style="opacity:1" fill="#fe7161" d="M 585.5,586.5 C 664.481,599.053 714.315,644.053 735,721.5C 747.47,810.883 713.803,875.883 634,916.5C 633.667,916.167 633.333,915.833 633,915.5C 617.849,922.493 602.016,926.493 585.5,927.5C 585.167,927.5 584.833,927.5 584.5,927.5C 584.167,927.5 583.833,927.5 583.5,927.5C 566.705,928.139 550.039,928.806 533.5,929.5C 488.5,929.5 443.5,929.5 398.5,929.5C 396.509,815.643 395.842,701.643 396.5,587.5C 450.892,587.247 505.059,586.913 559,586.5C 567.667,587.167 576.333,587.833 585,588.5C 585.464,587.906 585.631,587.239 585.5,586.5 Z"/></g>
<g><path style="opacity:1" fill="#f14e1e" d="M 394.5,928.5 C 330.157,928.586 267.157,928.586 205.5,928.5C 205.167,928.5 204.833,928.5 204.5,928.5C 204.389,927.883 204.056,927.383 203.5,927C 195.017,926.065 186.684,924.398 178.5,922C 166.623,918.285 154.956,914.119 143.5,909.5C 106.119,889.463 79.7854,859.796 64.5,820.5C 64.4142,819.504 64.7476,818.671 65.5,818C 59.3906,803.271 56.0573,788.104 55.5,772.5C 55.2343,769.35 54.2343,766.683 52.5,764.5C 52.5,760.167 52.5,755.833 52.5,751.5C 54.0504,749.7 55.0504,747.533 55.5,745C 56.1799,725.962 60.3466,707.462 68,689.5C 72.5321,680.436 77.0321,671.436 81.5,662.5C 104.231,628.446 135.231,605.446 174.5,593.5C 175.496,593.414 176.329,593.748 177,594.5C 185.874,591.08 194.874,589.413 204,589.5C 212.282,588.059 220.616,587.059 229,586.5C 282.333,586.5 335.667,586.5 389,586.5C 391.147,587.113 393.314,587.779 395.5,588.5C 395.193,701.86 394.86,815.193 394.5,928.5 Z"/></g>
<g><path style="opacity:0.871" fill="#f9654b" d="M 585.5,586.5 C 585.631,587.239 585.464,587.906 585,588.5C 576.333,587.833 567.667,587.167 559,586.5C 505.059,586.913 450.892,587.247 396.5,587.5C 395.842,701.643 396.509,815.643 398.5,929.5C 397.833,929.5 397.167,929.5 396.5,929.5C 396.167,929.5 395.833,929.5 395.5,929.5C 395.5,928.833 395.167,928.5 394.5,928.5C 394.86,815.193 395.193,701.86 395.5,588.5C 393.314,587.779 391.147,587.113 389,586.5C 335.667,586.5 282.333,586.5 229,586.5C 220.616,587.059 212.282,588.059 204,589.5C 194.874,589.413 185.874,591.08 177,594.5C 176.329,593.748 175.496,593.414 174.5,593.5C 187.726,589.524 201.06,587.024 214.5,586C 338.188,585.174 461.855,585.341 585.5,586.5 Z"/></g>
<g><path style="opacity:0.98" fill="#000000" d="M 1551.5,613.5 C 1589.72,612.667 1614.55,630.334 1626,666.5C 1630.74,702.747 1616.57,728.58 1583.5,744C 1548.66,754.27 1521.16,744.103 1501,713.5C 1485.95,681.498 1491.12,653.332 1516.5,629C 1527.28,620.923 1538.95,615.756 1551.5,613.5 Z"/></g>
<g><path style="opacity:0.514" fill="#d6593f" d="M 81.5,662.5 C 77.0321,671.436 72.5321,680.436 68,689.5C 60.3466,707.462 56.1799,725.962 55.5,745C 55.0504,747.533 54.0504,749.7 52.5,751.5C 53.7633,728.703 58.93,706.703 68,685.5C 71.5662,677.144 76.0662,669.477 81.5,662.5 Z"/></g>
<g><path style="opacity:0.114" fill="#242725" d="M 52.5,774.5 C 53.9063,774.973 54.573,775.973 54.5,777.5C 52.9519,777.179 52.2852,776.179 52.5,774.5 Z"/></g>
<g><path style="opacity:0.534" fill="#d7583e" d="M 52.5,764.5 C 54.2343,766.683 55.2343,769.35 55.5,772.5C 56.0573,788.104 59.3906,803.271 65.5,818C 64.7476,818.671 64.4142,819.504 64.5,820.5C 58.8397,806.85 55.5064,792.517 54.5,777.5C 54.573,775.973 53.9063,774.973 52.5,774.5C 52.5,771.167 52.5,767.833 52.5,764.5 Z"/></g>
<g><path style="opacity:0.986" fill="#000000" d="M 1980.5,830.5 C 2041.26,828.624 2093.09,848.957 2136,891.5C 2136.18,876.592 2136.68,861.759 2137.5,847C 2171.83,846.5 2206.17,846.333 2240.5,846.5C 2240.67,1015.83 2240.5,1185.17 2240,1354.5C 2230.41,1457.31 2179.91,1531.81 2088.5,1578C 2015.26,1610.6 1941.6,1610.6 1867.5,1578C 1857.04,1572.94 1847.04,1567.1 1837.5,1560.5C 1837.17,1559.83 1836.83,1559.17 1836.5,1558.5C 1853.43,1528.97 1870.6,1499.64 1888,1470.5C 1935.26,1502.44 1985.42,1508.61 2038.5,1489C 2094.9,1463.36 2127.4,1419.86 2136,1358.5C 2136.17,1329.93 2136.67,1301.43 2137.5,1273C 2136.83,1272.33 2136.17,1272.33 2135.5,1273C 2085.86,1320.61 2026.52,1340.27 1957.5,1332C 1883.8,1319.89 1828.3,1281.39 1791,1216.5C 1759.98,1156.9 1749.98,1094.9 1761,1030.5C 1772.85,969.28 1802.35,918.447 1849.5,878C 1888.18,848.252 1931.85,832.418 1980.5,830.5 Z M 1986.5,932.5 C 2046.14,930.929 2090.64,956.595 2120,1009.5C 2137.3,1045.86 2141.3,1083.86 2132,1123.5C 2117.92,1172.17 2087.42,1206 2040.5,1225C 1982.87,1240.96 1934.37,1226.12 1895,1180.5C 1858.27,1130.2 1851.27,1075.87 1874,1017.5C 1897.06,969.3 1934.56,940.966 1986.5,932.5 Z"/></g>
<g><path style="opacity:0.985" fill="#000000" d="M 2623.5,830.5 C 2684.85,829.33 2735.02,852.33 2774,899.5C 2778.31,906.309 2782.81,912.976 2787.5,919.5C 2835.77,851.451 2901.44,822.618 2984.5,833C 3052.9,848.051 3099.4,888.551 3124,954.5C 3130.11,971.718 3134.44,989.385 3137,1007.5C 3138.64,1131.49 3138.98,1255.49 3138,1379.5C 3104.04,1379.51 3069.87,1379.51 3035.5,1379.5C 3035.67,1266.17 3035.5,1152.83 3035,1039.5C 3030.63,984.14 3001.8,948.974 2948.5,934C 2900.53,927.303 2863.03,943.803 2836,983.5C 2827.62,996.991 2822.29,1011.66 2820,1027.5C 2819.5,1144.83 2819.33,1262.17 2819.5,1379.5C 2784.83,1379.5 2750.17,1379.5 2715.5,1379.5C 2715.67,1263.5 2715.5,1147.5 2715,1031.5C 2706.66,979.167 2676.83,946.667 2625.5,934C 2577.79,928.265 2540.62,945.765 2514,986.5C 2505.78,1001.04 2500.78,1016.71 2499,1033.5C 2498.5,1148.83 2498.33,1264.17 2498.5,1379.5C 2464.17,1379.5 2429.83,1379.5 2395.5,1379.5C 2395.38,1202.06 2395.05,1024.89 2394.5,848C 2429.02,846.507 2463.69,846.007 2498.5,846.5C 2498.33,862.17 2498.5,877.837 2499,893.5C 2530.84,853.178 2572.34,832.178 2623.5,830.5 Z"/></g>
<g><path style="opacity:0.99" fill="#000000" d="M 3492.5,830.5 C 3565.38,828.631 3627.71,853.298 3679.5,904.5C 3680.34,885.171 3680.67,866.171 3680.5,847.5C 3714.83,846.5 3749.16,846.167 3783.5,846.5C 3783.5,1024.17 3783.5,1201.83 3783.5,1379.5C 3749.16,1379.83 3714.83,1379.5 3680.5,1378.5C 3680.62,1359.51 3680.28,1340.51 3679.5,1321.5C 3640.66,1360.25 3594.32,1384.09 3540.5,1393C 3430.02,1405.07 3344.52,1364.57 3284,1271.5C 3242.1,1196.34 3230.77,1118.34 3250,1037.5C 3267.27,968.414 3304.77,913.247 3362.5,872C 3402.22,846.758 3445.56,832.924 3492.5,830.5 Z M 3498.5,932.5 C 3558.11,930.307 3606.27,952.64 3643,999.5C 3684.17,1059.19 3691.17,1123.19 3664,1191.5C 3636.41,1249.13 3591.24,1282.96 3528.5,1293C 3469.21,1296.36 3421.04,1274.86 3384,1228.5C 3348.67,1178.95 3337.67,1124.28 3351,1064.5C 3366.79,1007.82 3401.63,967.32 3455.5,943C 3461.74,940.854 3468.07,938.854 3474.5,937C 3482.97,935.965 3490.97,934.465 3498.5,932.5 Z"/></g>
<g><path style="opacity:0.985" fill="#000000" d="M 1507.5,846.5 C 1542.17,846.5 1576.83,846.5 1611.5,846.5C 1611.67,1023.83 1611.5,1201.17 1611,1378.5C 1576.57,1379.5 1542.07,1379.83 1507.5,1379.5C 1507.5,1201.83 1507.5,1024.17 1507.5,846.5 Z"/></g>
<g><path style="opacity:0.514" fill="#c3543c" d="M 143.5,909.5 C 154.956,914.119 166.623,918.285 178.5,922C 186.684,924.398 195.017,926.065 203.5,927C 204.056,927.383 204.389,927.883 204.5,928.5C 188.14,926.491 171.807,922.325 155.5,916C 151.598,913.551 147.598,911.384 143.5,909.5 Z"/></g>
<g><path style="opacity:0.998" fill="#a159fe" d="M 205.5,928.5 C 267.157,928.586 330.157,928.586 394.5,928.5C 395.167,928.5 395.5,928.833 395.5,929.5C 395.5,978.5 395.5,1027.5 395.5,1076.5C 395.527,1092.08 395.527,1107.74 395.5,1123.5C 395.5,1172.5 395.5,1221.5 395.5,1270.5C 337.5,1270.5 279.5,1270.5 221.5,1270.5C 219.302,1271.07 216.969,1271.07 214.5,1270.5C 211.856,1270.28 209.523,1270.28 207.5,1270.5C 202.582,1270.16 197.749,1269.49 193,1268.5C 192.667,1268.83 192.333,1269.17 192,1269.5C 189.095,1268.38 186.261,1267.38 183.5,1266.5C 181.485,1265.08 179.152,1264.41 176.5,1264.5C 153.634,1258.35 133.301,1247.68 115.5,1232.5C 114.833,1231.17 113.833,1230.17 112.5,1229.5C 104.167,1223.17 96.8333,1215.83 90.5,1207.5C 90.573,1205.97 89.9063,1204.97 88.5,1204.5C 74.8109,1188.16 65.4776,1169.49 60.5,1148.5C 60.2041,1146.6 59.5375,1144.93 58.5,1143.5C 57.6993,1141.96 57.366,1140.29 57.5,1138.5C 57.1417,1135.31 56.475,1132.31 55.5,1129.5C 54.5863,1126.27 54.2529,1122.94 54.5,1119.5C 55.0102,1116.61 54.3435,1114.28 52.5,1112.5C 52.5,1103.83 52.5,1095.17 52.5,1086.5C 54.2798,1085.01 54.9465,1083.01 54.5,1080.5C 56.6152,1058.16 62.9485,1037.16 73.5,1017.5C 74.9063,1017.03 75.573,1016.03 75.5,1014.5C 75.8333,1013.83 76.1667,1013.17 76.5,1012.5C 77.9063,1012.03 78.573,1011.03 78.5,1009.5C 80.2549,1006.32 82.2549,1003.32 84.5,1000.5C 85.9063,1000.03 86.573,999.027 86.5,997.5C 116.651,957.606 156.318,934.606 205.5,928.5 Z"/></g>
<g><path style="opacity:0.298" fill="#5997da" d="M 395.5,929.5 C 395.833,929.5 396.167,929.5 396.5,929.5C 396.168,977.336 396.501,1025 397.5,1072.5C 397.34,1074.15 396.674,1075.49 395.5,1076.5C 395.5,1027.5 395.5,978.5 395.5,929.5 Z"/></g>
<g><path style="opacity:0.998" fill="#1bbbfd" d="M 583.5,927.5 C 583.833,928.833 584.167,928.833 584.5,927.5C 584.833,927.5 585.167,927.5 585.5,927.5C 650.024,938.064 696.524,973.064 725,1032.5C 748.748,1095.38 740.748,1153.71 701,1207.5C 659.05,1255.38 607.717,1276.72 547,1271.5C 482.33,1261.06 435.997,1226.4 408,1167.5C 404.793,1158.21 401.793,1148.88 399,1139.5C 398.064,1135.89 397.564,1132.22 397.5,1128.5C 397.88,1126.3 397.213,1124.64 395.5,1123.5C 395.527,1107.74 395.527,1092.08 395.5,1076.5C 396.674,1075.49 397.34,1074.15 397.5,1072.5C 403.761,1031.16 422.761,996.658 454.5,969C 480.437,947.685 509.77,934.685 542.5,930C 539.518,929.502 536.518,929.335 533.5,929.5C 550.039,928.806 566.705,928.139 583.5,927.5 Z"/></g>
<g><path style="opacity:0.298" fill="#48678d" d="M 86.5,997.5 C 86.573,999.027 85.9063,1000.03 84.5,1000.5C 84.427,998.973 85.0937,997.973 86.5,997.5 Z"/></g>
<g><path style="opacity:0.298" fill="#48678d" d="M 78.5,1009.5 C 78.573,1011.03 77.9063,1012.03 76.5,1012.5C 76.427,1010.97 77.0937,1009.97 78.5,1009.5 Z"/></g>
<g><path style="opacity:0.298" fill="#48678d" d="M 75.5,1014.5 C 75.573,1016.03 74.9063,1017.03 73.5,1017.5C 73.427,1015.97 74.0937,1014.97 75.5,1014.5 Z"/></g>
<g><path style="opacity:0.298" fill="#5b80bf" d="M 54.5,1080.5 C 54.9465,1083.01 54.2798,1085.01 52.5,1086.5C 52.0254,1083.92 52.6921,1081.92 54.5,1080.5 Z"/></g>
<g><path style="opacity:0.298" fill="#5986bf" d="M 52.5,1112.5 C 54.3435,1114.28 55.0102,1116.61 54.5,1119.5C 53.8826,1119.39 53.3826,1119.06 53,1118.5C 52.5045,1116.53 52.3379,1114.53 52.5,1112.5 Z"/></g>
<g><path style="opacity:0.298" fill="#4c729e" d="M 55.5,1129.5 C 56.475,1132.31 57.1417,1135.31 57.5,1138.5C 55.7345,1135.88 55.0679,1132.88 55.5,1129.5 Z"/></g>
<g><path style="opacity:0.114" fill="#435c7a" d="M 58.5,1143.5 C 59.5375,1144.93 60.2041,1146.6 60.5,1148.5C 58.7868,1147.36 58.1201,1145.7 58.5,1143.5 Z"/></g>
<g><path style="opacity:0.114" fill="#3e5168" d="M 88.5,1204.5 C 89.9063,1204.97 90.573,1205.97 90.5,1207.5C 89.0937,1207.03 88.427,1206.03 88.5,1204.5 Z"/></g>
<g><path style="opacity:0.114" fill="#435c7a" d="M 112.5,1229.5 C 113.833,1230.17 114.833,1231.17 115.5,1232.5C 113.5,1232.5 112.5,1231.5 112.5,1229.5 Z"/></g>
<g><path style="opacity:0.298" fill="#4b6f99" d="M 176.5,1264.5 C 179.152,1264.41 181.485,1265.08 183.5,1266.5C 180.848,1266.59 178.515,1265.92 176.5,1264.5 Z"/></g>
<g><path style="opacity:0.298" fill="#498aae" d="M 214.5,1270.5 C 212.393,1271.47 210.059,1271.8 207.5,1271.5C 207.5,1271.17 207.5,1270.83 207.5,1270.5C 209.523,1270.28 211.856,1270.28 214.5,1270.5 Z"/></g>
<g><path style="opacity:0.998" fill="#0bce83" d="M 214.5,1270.5 C 216.969,1271.07 219.302,1271.07 221.5,1270.5C 279.236,1271.17 337.069,1271.84 395,1272.5C 395.5,1332.17 395.667,1391.83 395.5,1451.5C 395.872,1458.3 395.206,1464.97 393.5,1471.5C 392.008,1475.26 391.008,1479.26 390.5,1483.5C 376.68,1536.5 345.013,1575 295.5,1599C 290.653,1601.09 285.653,1602.59 280.5,1603.5C 277.254,1604.05 274.254,1605.05 271.5,1606.5C 267.884,1606.9 264.55,1607.9 261.5,1609.5C 259.452,1610.77 257.452,1611.1 255.5,1610.5C 252.813,1610.34 250.146,1610.5 247.5,1611C 246.944,1611.38 246.611,1611.88 246.5,1612.5C 244.167,1612.5 241.833,1612.5 239.5,1612.5C 236.772,1612.17 234.438,1612.84 232.5,1614.5C 228.5,1614.5 224.5,1614.5 220.5,1614.5C 220.389,1613.88 220.056,1613.38 219.5,1613C 216.183,1612.5 212.85,1612.33 209.5,1612.5C 209.167,1612.5 208.833,1612.5 208.5,1612.5C 202.03,1611.07 195.363,1610.07 188.5,1609.5C 188.167,1609.5 187.833,1609.5 187.5,1609.5C 184.45,1607.9 181.116,1606.9 177.5,1606.5C 175.708,1606.63 174.042,1606.3 172.5,1605.5C 171.22,1604.07 169.553,1603.4 167.5,1603.5C 163.137,1603.08 159.137,1601.75 155.5,1599.5C 154.71,1598.6 153.71,1597.93 152.5,1597.5C 139.23,1592.23 127.23,1584.89 116.5,1575.5C 115.089,1573.09 113.089,1571.42 110.5,1570.5C 94.0857,1556.47 81.419,1540.14 72.5,1521.5C 72.0113,1520 71.3446,1518.67 70.5,1517.5C 65.6602,1509.53 62.3268,1500.86 60.5,1491.5C 60.3969,1488.36 59.3969,1485.7 57.5,1483.5C 57.5,1482.5 57.5,1481.5 57.5,1480.5C 56.859,1474.98 55.859,1469.64 54.5,1464.5C 54.5,1463.5 54.5,1462.5 54.5,1461.5C 54.9321,1458.12 54.2655,1455.12 52.5,1452.5C 52.5,1443.83 52.5,1435.17 52.5,1426.5C 54.2132,1425.36 54.8799,1423.7 54.5,1421.5C 54.19,1418.29 54.5233,1415.29 55.5,1412.5C 56.5808,1409.37 57.2474,1406.04 57.5,1402.5C 59.1007,1399.45 60.1007,1396.12 60.5,1392.5C 60.5,1392.17 60.5,1391.83 60.5,1391.5C 62.0972,1389.15 63.0972,1386.49 63.5,1383.5C 72.7799,1355.27 88.7799,1331.6 111.5,1312.5C 113.749,1311.92 115.415,1310.59 116.5,1308.5C 127.021,1299.4 138.688,1292.07 151.5,1286.5C 154.157,1286.07 156.491,1285.07 158.5,1283.5C 161.652,1281.72 164.985,1280.22 168.5,1279C 171.117,1278.18 173.784,1277.68 176.5,1277.5C 180.116,1277.1 183.45,1276.1 186.5,1274.5C 186.833,1274.5 187.167,1274.5 187.5,1274.5C 193.68,1273.82 199.68,1272.82 205.5,1271.5C 206.167,1271.5 206.833,1271.5 207.5,1271.5C 210.059,1271.8 212.393,1271.47 214.5,1270.5 Z"/></g>
<g><path style="opacity:0.906" fill="#5a93cf" d="M 395.5,1123.5 C 397.213,1124.64 397.88,1126.3 397.5,1128.5C 396.833,1236.17 396.167,1343.83 395.5,1451.5C 395.667,1391.83 395.5,1332.17 395,1272.5C 337.069,1271.84 279.236,1271.17 221.5,1270.5C 279.5,1270.5 337.5,1270.5 395.5,1270.5C 395.5,1221.5 395.5,1172.5 395.5,1123.5 Z"/></g>
<g><path style="opacity:0.114" fill="#3d6173" d="M 205.5,1271.5 C 199.68,1272.82 193.68,1273.82 187.5,1274.5C 187.918,1273.78 188.584,1273.28 189.5,1273C 194.793,1272.02 200.126,1271.52 205.5,1271.5 Z"/></g>
<g><path style="opacity:0.467" fill="#3c8494" d="M 186.5,1274.5 C 183.45,1276.1 180.116,1277.1 176.5,1277.5C 179.452,1275.59 182.786,1274.59 186.5,1274.5 Z"/></g>
<g><path style="opacity:0.467" fill="#3a7b87" d="M 158.5,1283.5 C 156.491,1285.07 154.157,1286.07 151.5,1286.5C 153.32,1284.55 155.654,1283.55 158.5,1283.5 Z"/></g>
<g><path style="opacity:0.467" fill="#328a8e" d="M 116.5,1308.5 C 115.415,1310.59 113.749,1311.92 111.5,1312.5C 112.585,1310.41 114.251,1309.08 116.5,1308.5 Z"/></g>
<g><path style="opacity:0.298" fill="#40879d" d="M 63.5,1383.5 C 63.0972,1386.49 62.0972,1389.15 60.5,1391.5C 60.6031,1388.36 61.6031,1385.7 63.5,1383.5 Z"/></g>
<g><path style="opacity:0.298" fill="#4691b1" d="M 60.5,1392.5 C 60.1007,1396.12 59.1007,1399.45 57.5,1402.5C 57.5902,1398.79 58.5902,1395.45 60.5,1392.5 Z"/></g>
<g><path style="opacity:0.467" fill="#407b90" d="M 57.5,1402.5 C 57.2474,1406.04 56.5808,1409.37 55.5,1412.5C 55.3359,1409.81 55.5026,1407.15 56,1404.5C 56.2784,1403.58 56.7784,1402.92 57.5,1402.5 Z"/></g>
<g><path style="opacity:0.298" fill="#446389" d="M 54.5,1421.5 C 54.8799,1423.7 54.2132,1425.36 52.5,1426.5C 52.1201,1424.3 52.7868,1422.64 54.5,1421.5 Z"/></g>
<g><path style="opacity:0.298" fill="#407c99" d="M 52.5,1452.5 C 54.2655,1455.12 54.9321,1458.12 54.5,1461.5C 52.6122,1459.01 51.9455,1456.01 52.5,1452.5 Z"/></g>
<g><path style="opacity:0.467" fill="#408da4" d="M 54.5,1464.5 C 55.859,1469.64 56.859,1474.98 57.5,1480.5C 56.7784,1480.08 56.2784,1479.42 56,1478.5C 55.1706,1473.86 54.6706,1469.2 54.5,1464.5 Z"/></g>
<g><path style="opacity:0.467" fill="#4198b1" d="M 393.5,1471.5 C 393.498,1475.87 392.498,1479.87 390.5,1483.5C 391.008,1479.26 392.008,1475.26 393.5,1471.5 Z"/></g>
<g><path style="opacity:0.298" fill="#3d7085" d="M 57.5,1483.5 C 59.3969,1485.7 60.3969,1488.36 60.5,1491.5C 58.9028,1489.15 57.9028,1486.49 57.5,1483.5 Z"/></g>
<g><path style="opacity:0.114" fill="#354853" d="M 70.5,1517.5 C 71.3446,1518.67 72.0113,1520 72.5,1521.5C 70.8235,1520.82 70.1568,1519.48 70.5,1517.5 Z"/></g>
<g><path style="opacity:0.467" fill="#3b707d" d="M 110.5,1570.5 C 113.089,1571.42 115.089,1573.09 116.5,1575.5C 113.911,1574.58 111.911,1572.91 110.5,1570.5 Z"/></g>
<g><path style="opacity:0.114" fill="#242725" d="M 152.5,1597.5 C 153.71,1597.93 154.71,1598.6 155.5,1599.5C 153.821,1599.71 152.821,1599.05 152.5,1597.5 Z"/></g>
<g><path style="opacity:0.114" fill="#2d3b44" d="M 167.5,1603.5 C 169.553,1603.4 171.22,1604.07 172.5,1605.5C 170.302,1605.88 168.635,1605.21 167.5,1603.5 Z"/></g>
<g><path style="opacity:0.114" fill="#3c6d7c" d="M 280.5,1603.5 C 277.992,1605.55 274.992,1606.55 271.5,1606.5C 274.254,1605.05 277.254,1604.05 280.5,1603.5 Z"/></g>
<g><path style="opacity:0.298" fill="#3f8094" d="M 177.5,1606.5 C 181.116,1606.9 184.45,1607.9 187.5,1609.5C 183.786,1609.41 180.452,1608.41 177.5,1606.5 Z"/></g>
<g><path style="opacity:0.298" fill="#477a9c" d="M 271.5,1606.5 C 268.548,1608.41 265.214,1609.41 261.5,1609.5C 264.55,1607.9 267.884,1606.9 271.5,1606.5 Z"/></g>
<g><path style="opacity:0.298" fill="#43708a" d="M 255.5,1610.5 C 252.727,1611.66 249.727,1612.32 246.5,1612.5C 246.611,1611.88 246.944,1611.38 247.5,1611C 250.146,1610.5 252.813,1610.34 255.5,1610.5 Z"/></g>
<g><path style="opacity:0.298" fill="#407e93" d="M 188.5,1609.5 C 195.363,1610.07 202.03,1611.07 208.5,1612.5C 201.5,1612.79 194.834,1611.79 188.5,1609.5 Z"/></g>
<g><path style="opacity:0.467" fill="#389fab" d="M 209.5,1612.5 C 212.85,1612.33 216.183,1612.5 219.5,1613C 220.056,1613.38 220.389,1613.88 220.5,1614.5C 216.351,1615.08 212.684,1614.41 209.5,1612.5 Z"/></g>
<g><path style="opacity:0.114" fill="#344152" d="M 239.5,1612.5 C 239.389,1613.12 239.056,1613.62 238.5,1614C 236.527,1614.5 234.527,1614.66 232.5,1614.5C 234.438,1612.84 236.772,1612.17 239.5,1612.5 Z"/></g>
</svg>
