<?xml version="1.0" encoding="UTF-8"?>
<!DOCTYPE svg PUBLIC "-//W3C//DTD SVG 1.1//EN" "http://www.w3.org/Graphics/SVG/1.1/DTD/svg11.dtd">
<svg xmlns="http://www.w3.org/2000/svg" version="1.1" width="385px" height="180px" style="shape-rendering:geometricPrecision; text-rendering:geometricPrecision; image-rendering:optimizeQuality; fill-rule:evenodd; clip-rule:evenodd" xmlns:xlink="http://www.w3.org/1999/xlink">
<g><path style="opacity:0.915" fill="#5fd8fa" d="M 61.5,3.5 C 69.6687,2.54899 77.3354,4.04899 84.5,8C 91.6975,12.099 98.3642,16.9323 104.5,22.5C 112.308,14.8638 121.308,9.03044 131.5,5C 146.86,0.704331 156.694,6.20433 161,21.5C 161.706,32.5813 161.373,43.5813 160,54.5C 173.453,58.2188 184.786,65.2188 194,75.5C 197.286,82.8066 197.286,90.1399 194,97.5C 190.833,100.667 187.667,103.833 184.5,107C 180.6,108.565 176.934,110.565 173.5,113C 169.685,114.909 165.685,116.242 161.5,117C 160.484,117.519 159.818,118.353 159.5,119.5C 162.31,132.567 162.143,145.567 159,158.5C 151.334,169.791 141.167,172.625 128.5,167C 119.834,162.506 111.834,157.006 104.5,150.5C 95.8685,158.402 86.0352,164.402 75,168.5C 61.4174,171.75 52.4174,166.75 48,153.5C 46.0765,141.899 46.5765,130.399 49.5,119C 40.8538,115.845 32.5205,111.845 24.5,107C 11.0969,98.3981 8.26353,87.2315 16,73.5C 19.5813,69.2477 23.748,65.7477 28.5,63C 35.5306,59.8165 42.5306,56.6499 49.5,53.5C 46.5453,42.282 46.0453,30.9487 48,19.5C 50.4244,12.2597 54.9244,6.9264 61.5,3.5 Z M 65.5,13.5 C 78.1324,15.3071 88.4657,21.1404 96.5,31C 91.4798,36.3557 86.8131,42.0223 82.5,48C 74.872,49.6812 67.2054,51.1812 59.5,52.5C 58.9873,48.447 58.154,44.447 57,40.5C 55.709,32.5024 56.709,24.8358 60,17.5C 61.8121,16.0229 63.6455,14.6896 65.5,13.5 Z M 137.5,13.5 C 144.703,13.2052 149.203,16.5386 151,23.5C 151.862,33.2528 151.362,42.9195 149.5,52.5C 141.479,51.1966 133.479,49.6966 125.5,48C 121.057,42.294 116.723,36.4607 112.5,30.5C 119.546,22.7615 127.879,17.0948 137.5,13.5 Z M 103.5,38.5 C 106.404,40.7368 109.07,43.4034 111.5,46.5C 106.833,47.8333 102.167,47.8333 97.5,46.5C 99.5244,43.8149 101.524,41.1482 103.5,38.5 Z M 95.5,57.5 C 103.875,57.3162 112.208,57.8162 120.5,59C 126.781,67.4267 131.781,76.5934 135.5,86.5C 131.576,96.2563 126.576,105.423 120.5,114C 109.524,115.793 98.5245,115.96 87.5,114.5C 82.4674,104.933 77.134,95.4333 71.5,86C 76.5411,77.4167 81.7077,68.9167 87,60.5C 89.7142,59.0035 92.5475,58.0035 95.5,57.5 Z M 73.5,59.5 C 74.0431,59.56 74.3764,59.8933 74.5,60.5C 72,64.8333 69.5,69.1667 67,73.5C 64.8154,70.1129 63.3154,66.4462 62.5,62.5C 66.3968,61.9448 70.0635,60.9448 73.5,59.5 Z M 133.5,60.5 C 133.56,59.9569 133.893,59.6236 134.5,59.5C 138.376,60.3811 142.042,61.7145 145.5,63.5C 144.333,67.1667 143.167,70.8333 142,74.5C 139.803,69.3554 136.97,64.6887 133.5,60.5 Z M 50.5,64.5 C 51.4972,64.4701 52.1639,64.9701 52.5,66C 54.7348,73.2102 57.4014,80.2102 60.5,87C 57.7204,93.4007 55.0537,99.9007 52.5,106.5C 51.5,106.833 50.5,107.167 49.5,107.5C 41.7294,104.735 34.396,101.068 27.5,96.5C 24.8468,93.3588 22.8468,89.8588 21.5,86C 24.0474,80.117 28.0474,75.4503 33.5,72C 39.4918,69.999 45.1584,67.499 50.5,64.5 Z M 156.5,64.5 C 162.852,67.0115 169.185,69.5115 175.5,72C 178.572,74.9506 181.739,77.7839 185,80.5C 186.483,83.7024 186.817,87.0357 186,90.5C 177.722,99.7188 167.555,105.386 155.5,107.5C 153.359,100.412 151.026,93.4118 148.5,86.5C 150.977,79.0672 153.643,71.7339 156.5,64.5 Z M 141.5,98.5 C 143.587,102.49 144.92,106.823 145.5,111.5C 141.736,111.909 138.07,111.909 134.5,111.5C 137.113,107.272 139.446,102.939 141.5,98.5 Z M 66.5,99.5 C 69.3113,103.109 71.6446,107.109 73.5,111.5C 73,111.833 72.5,112.167 72,112.5C 68.9442,111.923 65.9442,111.257 63,110.5C 63.4412,106.673 64.6079,103.007 66.5,99.5 Z M 59.5,120.5 C 67.0485,122.405 74.7152,123.905 82.5,125C 86.9767,130.978 91.6434,136.811 96.5,142.5C 88.711,150.727 79.3776,156.394 68.5,159.5C 62.2116,158.042 58.3782,154.042 57,147.5C 56.3333,142.5 56.3333,137.5 57,132.5C 58.154,128.553 58.9873,124.553 59.5,120.5 Z M 147.5,120.5 C 148.497,120.47 149.164,120.97 149.5,122C 156.5,162.705 144.334,169.872 113,143.5C 112.685,142.092 113.018,140.759 114,139.5C 118.214,134.954 122.047,130.121 125.5,125C 133.063,123.981 140.396,122.481 147.5,120.5 Z M 97.5,125.5 C 102.179,125.334 106.845,125.501 111.5,126C 109.326,129.004 106.992,131.837 104.5,134.5C 101.768,131.773 99.4342,128.773 97.5,125.5 Z"/></g>
<g><path style="opacity:0.741" fill="#000000" d="M 204.5,58.5 C 213.303,58.0272 221.97,58.8606 230.5,61C 235.984,64.6716 238.151,69.8382 237,76.5C 236.469,80.5623 234.636,83.8957 231.5,86.5C 236.531,93.2246 240.531,100.558 243.5,108.5C 240.554,109.655 237.554,109.821 234.5,109C 231.352,102.372 227.686,96.0383 223.5,90C 219.848,89.5014 216.182,89.3347 212.5,89.5C 212.5,96.1667 212.5,102.833 212.5,109.5C 209.833,109.5 207.167,109.5 204.5,109.5C 204.5,92.5 204.5,75.5 204.5,58.5 Z M 212.5,66.5 C 218.001,65.7787 222.834,67.112 227,70.5C 228.004,73.9926 227.504,77.1592 225.5,80C 221.249,81.1946 216.915,81.6946 212.5,81.5C 212.5,76.5 212.5,71.5 212.5,66.5 Z"/></g>
<g><path style="opacity:0.716" fill="#000000" d="M 384.5,71.5 C 384.5,73.8333 384.5,76.1667 384.5,78.5C 380.833,78.5 377.167,78.5 373.5,78.5C 373.334,85.8409 373.5,93.1742 374,100.5C 377.243,102.263 380.743,102.929 384.5,102.5C 384.5,104.833 384.5,107.167 384.5,109.5C 378.32,110.171 372.486,109.171 367,106.5C 365.647,97.2246 365.147,87.8912 365.5,78.5C 363.856,78.7135 362.356,78.3802 361,77.5C 360.505,75.5273 360.338,73.5273 360.5,71.5C 362.167,71.5 363.833,71.5 365.5,71.5C 365.5,67.8333 365.5,64.1667 365.5,60.5C 368.119,60.2317 370.619,60.565 373,61.5C 373.498,64.8168 373.665,68.1501 373.5,71.5C 377.167,71.5 380.833,71.5 384.5,71.5 Z"/></g>
<g><path style="opacity:0.953" fill="#5fd8fa" d="M 101.5,68.5 C 118.471,69.9851 124.638,78.9851 120,95.5C 114.257,103.058 106.757,105.558 97.5,103C 90.4863,99.8241 86.8196,94.3241 86.5,86.5C 87.2412,76.7724 92.2412,70.7724 101.5,68.5 Z"/></g>
<g><path style="opacity:0.711" fill="#000000" d="M 260.5,70.5 C 275.32,70.3282 281.654,77.6615 279.5,92.5C 270.475,92.1685 261.475,92.5018 252.5,93.5C 254.975,101.474 260.308,104.641 268.5,103C 271.618,102.127 274.618,100.961 277.5,99.5C 278.833,102.167 278.833,104.833 277.5,107.5C 267.57,112.017 258.07,111.35 249,105.5C 241.599,94.2235 242.433,83.5568 251.5,73.5C 254.425,72.0473 257.425,71.0473 260.5,70.5 Z M 260.5,77.5 C 266.415,77.0818 270.081,79.7485 271.5,85.5C 265.193,86.6639 258.859,86.8306 252.5,86C 254.021,81.9823 256.687,79.149 260.5,77.5 Z"/></g>
<g><path style="opacity:0.689" fill="#000000" d="M 298.5,70.5 C 308.282,68.644 314.782,72.3107 318,81.5C 318.5,90.8274 318.666,100.161 318.5,109.5C 315.212,109.927 312.212,109.26 309.5,107.5C 302.346,111.65 295.346,111.483 288.5,107C 287.299,106.097 286.465,104.931 286,103.5C 283.175,93.6423 286.675,87.4756 296.5,85C 300.821,84.501 305.154,84.3343 309.5,84.5C 307.847,78.4992 303.847,76.3326 297.5,78C 295,78.8333 292.5,79.6667 290,80.5C 289.228,80.3552 288.561,80.0219 288,79.5C 287.242,77.2305 287.409,75.0639 288.5,73C 291.909,72.0042 295.242,71.1708 298.5,70.5 Z M 299.5,91.5 C 303.182,91.3347 306.848,91.5014 310.5,92C 309.238,101.123 304.238,104.456 295.5,102C 292.776,96.9492 294.109,93.4492 299.5,91.5 Z"/></g>
<g><path style="opacity:0.672" fill="#000000" d="M 342.5,70.5 C 346.853,70.7646 351.187,71.2646 355.5,72C 357.68,74.4177 358.013,77.0844 356.5,80C 352.01,78.5142 347.343,77.8475 342.5,78C 335.786,81.44 333.286,86.94 335,94.5C 336.177,100.175 339.677,103.175 345.5,103.5C 348.952,102.905 352.286,101.905 355.5,100.5C 359.005,105.545 357.671,108.711 351.5,110C 333.374,112.539 324.874,104.706 326,86.5C 327.529,76.8 333.029,71.4666 342.5,70.5 Z"/></g>
</svg>
