<?xml version="1.0" encoding="UTF-8"?>
<!DOCTYPE svg PUBLIC "-//W3C//DTD SVG 1.1//EN" "http://www.w3.org/Graphics/SVG/1.1/DTD/svg11.dtd">
<svg xmlns="http://www.w3.org/2000/svg" version="1.1" width="3840px" height="2160px" style="shape-rendering:geometricPrecision; text-rendering:geometricPrecision; image-rendering:optimizeQuality; fill-rule:evenodd; clip-rule:evenodd" xmlns:xlink="http://www.w3.org/1999/xlink">
<g><path style="opacity:0.997" fill="#000000" d="M 73.5,362.5 C 110.854,362.08 148.187,362.58 185.5,364C 276.239,378.704 334.739,430.537 361,519.5C 389.386,647.251 418.22,773.751 447.5,899C 464.912,979.705 483.246,1060.37 502.5,1141C 502.5,1143 502.5,1145 502.5,1147C 519.772,1221.58 537.272,1296.08 555,1370.5C 609.589,1110.68 665.256,848.347 722,583.5C 732.014,537.81 751.847,497.143 781.5,461.5C 826.626,408.424 883.96,376.924 953.5,367C 1035.99,358.721 1108.32,381.721 1170.5,436C 1182.69,448.925 1194.53,462.091 1206,475.5C 1224.59,501.336 1238.25,529.336 1247,559.5C 1261.89,624.905 1276.39,690.405 1290.5,756C 1308.55,845.126 1327.88,935.793 1348.5,1028C 1347.3,1029.7 1347.63,1031.2 1349.5,1032.5C 1349.25,1034.92 1349.25,1037.26 1349.5,1039.5C 1374.83,1152.8 1398.66,1263.8 1421,1372.5C 1439.66,1294.2 1457.16,1216.87 1473.5,1140.5C 1494.69,1050.79 1514.69,962.955 1533.5,877C 1561.17,758.159 1588,640.325 1614,523.5C 1630.56,457.364 1669.06,409.864 1729.5,381C 1749,372.375 1769.33,366.709 1790.5,364C 1827.81,362.573 1865.14,362.073 1902.5,362.5C 1869.68,509.477 1836.01,656.477 1801.5,803.5C 1784.21,883.988 1765.55,966.321 1745.5,1050.5C 1727.83,1133.35 1708.83,1217.01 1688.5,1301.5C 1671.14,1381.97 1652.48,1464.47 1632.5,1549C 1615.05,1629.14 1596.55,1710.97 1577,1794.5C 1554.22,1795.83 1531.22,1796.49 1508,1796.5C 1485.17,1796.33 1462.33,1796.17 1439.5,1796C 1361.1,1789.32 1299.43,1753.98 1254.5,1690C 1242.1,1670.04 1232.27,1648.87 1225,1626.5C 1211.81,1570.08 1199.98,1514.58 1189.5,1460C 1169.42,1370.12 1150.75,1282.12 1133.5,1196C 1112.88,1103.94 1093.55,1013.44 1075.5,924.5C 1053.54,825.836 1032.71,728.17 1013,631.5C 1009.31,619.141 1000.98,612.475 988,611.5C 977.369,611.81 969.369,616.477 964,625.5C 942.636,728.114 920.469,831.114 897.5,934.5C 880.055,1021.32 861.388,1108.99 841.5,1197.5C 842.002,1198.72 842.335,1199.88 842.5,1201C 841.833,1201.33 841.167,1201.67 840.5,1202C 840.833,1203 841.167,1204 841.5,1205C 823.382,1287.64 805.049,1371.64 786.5,1457C 786.088,1459.21 786.088,1461.54 786.5,1464C 775.596,1512.42 764.763,1561.92 754,1612.5C 731.815,1696.04 679.981,1753.21 598.5,1784C 578.018,1790.7 557.018,1794.7 535.5,1796C 489.833,1796.67 444.167,1796.67 398.5,1796C 380.961,1716.38 362.961,1637.21 344.5,1558.5C 327.9,1481.85 310.233,1404.02 291.5,1325C 272.717,1238.39 252.717,1150.39 231.5,1061C 231.645,1060.23 231.978,1059.56 232.5,1059C 212.974,975.868 193.641,892.701 174.5,809.5C 156.619,726.936 137.619,643.269 117.5,558.5C 117.709,557.914 118.043,557.414 118.5,557C 103.414,492.83 88.4136,427.997 73.5,362.5 Z"/></g>
<g><path style="opacity:0.998" fill="#000000" d="M 2214.5,362.5 C 2250.83,362.5 2287.17,362.5 2323.5,362.5C 2323.67,796.5 2323.5,1230.5 2323,1664.5C 2320.41,1686.23 2314.58,1704.4 2305.5,1719C 2306.63,1720.02 2306.3,1720.68 2304.5,1721C 2304.5,1722 2304.5,1723 2304.5,1724C 2283.47,1756.89 2254.13,1779.22 2216.5,1791C 2207.32,1793.5 2197.98,1795.17 2188.5,1796C 2152.17,1796.5 2115.83,1796.67 2079.5,1796.5C 2079.33,1362.17 2079.5,927.833 2080,493.5C 2088.24,432.426 2122.41,390.926 2182.5,369C 2193.16,366.101 2203.83,363.934 2214.5,362.5 Z"/></g>
<g><path style="opacity:0.996" fill="#000000" d="M 2498.5,362.5 C 2573.85,362.031 2649.19,362.531 2724.5,364C 2772.69,371.331 2811.52,394.164 2841,432.5C 2933.24,568.646 3025.24,704.98 3117,841.5C 3126.64,851.961 3136.3,851.961 3146,841.5C 3240.76,700.69 3335.42,561.023 3430,422.5C 3459.1,390.107 3495.27,370.607 3538.5,364C 3577.98,362.864 3617.48,362.364 3657,362.5C 3693.17,362.833 3729.33,363.167 3765.5,363.5C 3603.48,603.394 3441.48,842.727 3279.5,1081.5C 3392.61,1247.87 3505.44,1414.87 3618,1582.5C 3655.5,1636.82 3692.5,1691.49 3729,1746.5C 3740,1762.17 3751,1777.83 3762,1793.5C 3762.48,1794.45 3762.65,1795.45 3762.5,1796.5C 3686.81,1796.97 3611.15,1796.47 3535.5,1795C 3487.85,1787.77 3449.35,1765.27 3420,1727.5C 3328.68,1592.2 3237.34,1456.86 3146,1321.5C 3136.21,1311.3 3126.54,1311.3 3117,1321.5C 3026.69,1455.45 2936.35,1589.45 2846,1723.5C 2816.33,1763.27 2776.83,1787.1 2727.5,1795C 2688.02,1796.14 2648.52,1796.64 2609,1796.5C 2572.83,1796.17 2536.67,1795.83 2500.5,1795.5C 2660.69,1558.06 2821.69,1320.06 2983.5,1081.5C 2857.09,895.269 2731.93,709.936 2608,525.5C 2607.25,524.874 2606.42,524.374 2605.5,524C 2606.35,522.442 2605.68,521.442 2603.5,521C 2603.83,520.667 2604.17,520.333 2604.5,520C 2570.67,470.833 2536.83,421.667 2503,372.5C 2500.68,369.52 2499.18,366.187 2498.5,362.5 Z"/></g>
</svg>
