<?xml version="1.0" encoding="UTF-8"?>
<!DOCTYPE svg PUBLIC "-//W3C//DTD SVG 1.1//EN" "http://www.w3.org/Graphics/SVG/1.1/DTD/svg11.dtd">
<svg xmlns="http://www.w3.org/2000/svg" version="1.1" width="3840px" height="2160px" style="shape-rendering:geometricPrecision; text-rendering:geometricPrecision; image-rendering:optimizeQuality; fill-rule:evenodd; clip-rule:evenodd" xmlns:xlink="http://www.w3.org/1999/xlink">
<g><path style="opacity:0.494" fill="#3e4f57" d="M 1869.5,29.5 C 1879.32,28.506 1889.32,28.1726 1899.5,28.5C 1889.32,29.8995 1879.32,30.2329 1869.5,29.5 Z"/></g>
<g><path style="opacity:1" fill="#454646" d="M 1899.5,28.5 C 1913.17,28.5 1926.83,28.5 1940.5,28.5C 1947,30.0091 1953.33,30.3425 1959.5,29.5C 2040.85,30.9161 2119.19,47.4161 2194.5,79C 2279.01,114.216 2354.01,163.383 2419.5,226.5C 2421.24,229.243 2423.57,231.243 2426.5,232.5C 2430.83,236.167 2434.83,240.167 2438.5,244.5C 2440.09,247.764 2442.43,250.431 2445.5,252.5C 2546.53,358.554 2610.7,484.221 2638,629.5C 2674.42,850.496 2624.42,1049.16 2488,1225.5C 2474.85,1241.47 2461.02,1256.81 2446.5,1271.5C 2444.09,1272.91 2442.42,1274.91 2441.5,1277.5C 2436.5,1283.17 2431.17,1288.5 2425.5,1293.5C 2422.91,1294.42 2420.91,1296.09 2419.5,1298.5C 2321.89,1391.58 2206.72,1453.58 2074,1484.5C 2073.59,1484.04 2073.09,1483.71 2072.5,1483.5C 2038.67,1490.31 2004.67,1494.31 1970.5,1495.5C 1964.64,1495.18 1958.98,1495.51 1953.5,1496.5C 1916.54,1497.49 1879.37,1497.82 1842,1497.5C 1633.06,1472.72 1463.72,1378.05 1334,1213.5C 1209.36,1045.63 1161.36,857.634 1190,649.5C 1210.93,517.586 1262.93,399.919 1346,296.5C 1356.05,284.383 1366.55,272.716 1377.5,261.5C 1379.59,260.415 1380.92,258.749 1381.5,256.5C 1494.02,137.042 1631.69,63.2082 1794.5,35C 1819.39,31.6755 1844.39,29.8421 1869.5,29.5C 1879.32,30.2329 1889.32,29.8995 1899.5,28.5 Z M 1885.5,68.5 C 1905.62,68.5297 1925.96,68.5297 1946.5,68.5C 1951.74,69.7931 1957.07,70.1264 1962.5,69.5C 2124.73,80.4975 2265.07,142.164 2383.5,254.5C 2384.91,256.914 2386.91,258.581 2389.5,259.5C 2395.89,267.221 2402.89,274.221 2410.5,280.5C 2411.76,283.427 2413.76,285.761 2416.5,287.5C 2529.67,404.91 2592.84,545.576 2606,709.5C 2617.2,859.371 2583.2,998.037 2504,1125.5C 2480.31,1163.2 2453.48,1198.53 2423.5,1231.5C 2421.41,1232.58 2420.08,1234.25 2419.5,1236.5C 2342.17,1318.61 2250.51,1379.44 2144.5,1419C 2083.91,1440.35 2021.58,1453.18 1957.5,1457.5C 1951.31,1457.18 1945.31,1457.51 1939.5,1458.5C 1925.17,1458.5 1910.83,1458.5 1896.5,1458.5C 1893.04,1457.52 1889.37,1457.19 1885.5,1457.5C 1716.39,1446.96 1569.72,1384.96 1445.5,1271.5C 1444.42,1269.41 1442.75,1268.08 1440.5,1267.5C 1433.17,1259.5 1425.5,1251.83 1417.5,1244.5C 1416.24,1241.57 1414.24,1239.24 1411.5,1237.5C 1305.07,1120.91 1243.23,983.579 1226,825.5C 1213.04,652.093 1256.71,494.76 1357,353.5C 1370.94,336.616 1385.1,319.95 1399.5,303.5C 1401.59,302.415 1402.92,300.749 1403.5,298.5C 1409.5,293.167 1415.17,287.5 1420.5,281.5C 1424.83,277.833 1428.83,273.833 1432.5,269.5C 1439.17,263.5 1445.5,257.167 1451.5,250.5C 1453.75,249.92 1455.42,248.587 1456.5,246.5C 1498.38,206.389 1545.04,172.889 1596.5,146C 1682.9,101.409 1774.24,75.9094 1870.5,69.5C 1875.55,70.1623 1880.55,69.829 1885.5,68.5 Z"/></g>
<g><path style="opacity:0.494" fill="#3f4e54" d="M 1940.5,28.5 C 1947.02,28.1765 1953.36,28.5098 1959.5,29.5C 1953.33,30.3425 1947,30.0091 1940.5,28.5 Z"/></g>
<g><path style="opacity:0.494" fill="#3e4f57" d="M 1870.5,69.5 C 1875.31,68.5128 1880.31,68.1795 1885.5,68.5C 1880.55,69.829 1875.55,70.1623 1870.5,69.5 Z"/></g>
<g><path style="opacity:0.494" fill="#3e4f57" d="M 1946.5,68.5 C 1952.03,68.1786 1957.36,68.5119 1962.5,69.5C 1957.07,70.1264 1951.74,69.7931 1946.5,68.5 Z"/></g>
<g><path style="opacity:1" fill="#454646" d="M 1896.5,130.5 C 1910.36,131.441 1924.03,131.441 1937.5,130.5C 1939.7,129.933 1942.03,129.933 1944.5,130.5C 1950.12,131.859 1955.78,132.193 1961.5,131.5C 2049.55,137.794 2132.55,161.627 2210.5,203C 2244.1,220.625 2276.1,240.625 2306.5,263C 2314.3,268.631 2321.3,275.131 2327.5,282.5C 2328.91,284.914 2330.91,286.581 2333.5,287.5C 2336.48,289.812 2339.15,292.479 2341.5,295.5C 2328.56,299.759 2315.56,303.925 2302.5,308C 2273.48,320.357 2252.31,340.857 2239,369.5C 2229.07,397.135 2229.07,424.802 2239,452.5C 2245.63,470.761 2253.63,488.427 2263,505.5C 2277.73,530.577 2292.07,555.91 2306,581.5C 2324.79,616.216 2336.13,653.216 2340,692.5C 2341.5,719.316 2340.17,745.983 2336,772.5C 2331,803.858 2324.33,834.858 2316,865.5C 2289.98,959.59 2261.48,1052.92 2230.5,1145.5C 2228.39,1146.85 2226.56,1146.52 2225,1144.5C 2160.21,955.453 2096.21,766.119 2033,576.5C 2020.53,538.934 2008.37,501.268 1996.5,463.5C 2016.15,461.94 2035.81,460.44 2055.5,459C 2064.41,458.139 2072.75,455.473 2080.5,451C 2082.7,448.766 2084.53,446.266 2086,443.5C 2087.37,435.236 2087.87,426.903 2087.5,418.5C 1987.08,418.514 1887.08,418.514 1787.5,418.5C 1780.65,418.176 1773.98,418.509 1767.5,419.5C 1760.55,419.42 1753.71,420.086 1747,421.5C 1737.38,420.83 1727.88,421.996 1718.5,425C 1712.36,438.07 1716.03,447.403 1729.5,453C 1734.08,454.644 1738.74,455.978 1743.5,457C 1760.14,459.497 1776.81,461.83 1793.5,464C 1796,466.139 1798.17,468.639 1800,471.5C 1813.04,497.918 1824.71,524.918 1835,552.5C 1857.8,613.724 1880.3,675.057 1902.5,736.5C 1859.43,868.557 1815.26,1000.22 1770,1131.5C 1767.24,1139.45 1763.91,1147.12 1760,1154.5C 1728.83,1069 1698.83,982.995 1670,896.5C 1622.46,756.553 1576.13,616.22 1531,475.5C 1530.33,473.5 1530.33,471.5 1531,469.5C 1533.97,467.599 1537.14,466.099 1540.5,465C 1555.7,461.866 1571.03,459.533 1586.5,458C 1596.46,456.348 1605.8,453.014 1614.5,448C 1625.08,439.418 1625.08,430.751 1614.5,422C 1610.48,419.66 1606.15,418.326 1601.5,418C 1593.02,417.13 1584.52,416.63 1576,416.5C 1560.66,417.051 1544.83,417.384 1528.5,417.5C 1521.65,417.176 1514.98,417.509 1508.5,418.5C 1486.57,419.618 1464.41,420.618 1442,421.5C 1440.08,420.522 1437.91,420.189 1435.5,420.5C 1427.17,420.5 1418.83,420.5 1410.5,420.5C 1408.93,421.197 1407.43,421.53 1406,421.5C 1400.92,420.693 1395.75,420.193 1390.5,420C 1389.48,419.481 1388.82,418.647 1388.5,417.5C 1391.2,410.428 1394.7,403.761 1399,397.5C 1415.87,374.465 1434.37,352.798 1454.5,332.5C 1456.91,331.089 1458.58,329.089 1459.5,326.5C 1468.17,317.167 1477.17,308.167 1486.5,299.5C 1488.75,298.92 1490.42,297.587 1491.5,295.5C 1573.47,218.836 1669.8,168.336 1780.5,144C 1818.93,135.575 1857.6,131.075 1896.5,130.5 Z"/></g>
<g><path style="opacity:0.494" fill="#3e4f57" d="M 1896.5,130.5 C 1910.17,129.167 1923.83,129.167 1937.5,130.5C 1924.03,131.441 1910.36,131.441 1896.5,130.5 Z"/></g>
<g><path style="opacity:0.494" fill="#3e4f57" d="M 1944.5,130.5 C 1950.36,130.178 1956.02,130.511 1961.5,131.5C 1955.78,132.193 1950.12,131.859 1944.5,130.5 Z"/></g>
<g><path style="opacity:0.173" fill="#3b535e" d="M 2419.5,226.5 C 2422.43,227.757 2424.76,229.757 2426.5,232.5C 2423.57,231.243 2421.24,229.243 2419.5,226.5 Z"/></g>
<g><path style="opacity:0.769" fill="#3b535e" d="M 2438.5,244.5 C 2441.57,246.569 2443.91,249.236 2445.5,252.5C 2442.43,250.431 2440.09,247.764 2438.5,244.5 Z"/></g>
<g><path style="opacity:0.173" fill="#3b535d" d="M 1456.5,246.5 C 1455.42,248.587 1453.75,249.92 1451.5,250.5C 1452.58,248.413 1454.25,247.08 1456.5,246.5 Z"/></g>
<g><path style="opacity:0.769" fill="#3b535e" d="M 2383.5,254.5 C 2386.09,255.419 2388.09,257.086 2389.5,259.5C 2386.91,258.581 2384.91,256.914 2383.5,254.5 Z"/></g>
<g><path style="opacity:0.769" fill="#3b535e" d="M 1381.5,256.5 C 1380.92,258.749 1379.59,260.415 1377.5,261.5C 1378.08,259.251 1379.41,257.585 1381.5,256.5 Z"/></g>
<g><path style="opacity:0.173" fill="#3b535d" d="M 1432.5,269.5 C 1428.83,273.833 1424.83,277.833 1420.5,281.5C 1423.5,276.5 1427.5,272.5 1432.5,269.5 Z"/></g>
<g><path style="opacity:0.173" fill="#3b535e" d="M 2410.5,280.5 C 2413.24,282.239 2415.24,284.573 2416.5,287.5C 2413.76,285.761 2411.76,283.427 2410.5,280.5 Z"/></g>
<g><path style="opacity:0.173" fill="#3b535e" d="M 2327.5,282.5 C 2330.09,283.419 2332.09,285.086 2333.5,287.5C 2330.91,286.581 2328.91,284.914 2327.5,282.5 Z"/></g>
<g><path style="opacity:0.769" fill="#3b535e" d="M 1491.5,295.5 C 1490.42,297.587 1488.75,298.92 1486.5,299.5C 1487.58,297.413 1489.25,296.08 1491.5,295.5 Z"/></g>
<g><path style="opacity:0.173" fill="#3b535e" d="M 1403.5,298.5 C 1402.92,300.749 1401.59,302.415 1399.5,303.5C 1400.08,301.251 1401.41,299.585 1403.5,298.5 Z"/></g>
<g><path style="opacity:0.769" fill="#3b535e" d="M 1459.5,326.5 C 1458.58,329.089 1456.91,331.089 1454.5,332.5C 1455.42,329.911 1457.09,327.911 1459.5,326.5 Z"/></g>
<g><path style="opacity:0.494" fill="#3e4f57" d="M 1508.5,418.5 C 1514.98,417.509 1521.65,417.176 1528.5,417.5C 1521.88,418.855 1515.21,419.189 1508.5,418.5 Z"/></g>
<g><path style="opacity:0.494" fill="#3f4e55" d="M 1767.5,419.5 C 1773.98,418.509 1780.65,418.176 1787.5,418.5C 1781.77,419.186 1775.93,419.852 1770,420.5C 1769.33,419.748 1768.5,419.414 1767.5,419.5 Z"/></g>
<g><path style="opacity:0.173" fill="#3c535c" d="M 1410.5,420.5 C 1418.83,420.5 1427.17,420.5 1435.5,420.5C 1430.1,421.187 1424.6,421.854 1419,422.5C 1416.06,421.872 1413.23,421.205 1410.5,420.5 Z"/></g>
<g><path style="opacity:1" fill="#454646" d="M 2369.5,1202.5 C 2363.83,1207.5 2358.5,1212.83 2353.5,1218.5C 2318.69,1253.4 2280.03,1283.23 2237.5,1308C 2234.59,1309.04 2231.76,1310.2 2229,1311.5C 2227.51,1310.84 2226.35,1309.84 2225.5,1308.5C 2280.9,1147.8 2336.4,987.129 2392,826.5C 2410.01,773.474 2427.01,720.141 2443,666.5C 2454.31,629.304 2460.97,591.304 2463,552.5C 2463.2,525.153 2463.87,497.82 2465,470.5C 2464.87,466.538 2466.21,463.205 2469,460.5C 2472.35,462.854 2475.02,465.854 2477,469.5C 2502.57,522.532 2521.57,577.865 2534,635.5C 2570.99,845.271 2520.32,1030.27 2382,1190.5C 2377.96,1194.7 2373.8,1198.7 2369.5,1202.5 Z"/></g>
<g><path style="opacity:1" fill="#454646" d="M 1341.5,503.5 C 1342.98,503.238 1344.31,503.571 1345.5,504.5C 1447,777.517 1546.84,1051.18 1645,1325.5C 1645.74,1327.44 1645.58,1329.27 1644.5,1331C 1641.44,1331.46 1638.44,1331.12 1635.5,1330C 1618.47,1322.65 1602.14,1313.98 1586.5,1304C 1441.56,1211.27 1347.06,1081.77 1303,915.5C 1289.19,856.61 1284.19,796.944 1288,736.5C 1289.56,661.021 1304.56,588.355 1333,518.5C 1335.34,513.148 1338.17,508.148 1341.5,503.5 Z"/></g>
<g><path style="opacity:1" fill="#454646" d="M 1911.5,1397.5 C 1905.36,1396.51 1899.02,1396.18 1892.5,1396.5C 1890.53,1396.26 1888.7,1396.59 1887,1397.5C 1877.38,1396.29 1867.55,1394.96 1857.5,1393.5C 1833.61,1391.3 1809.94,1388.13 1786.5,1384C 1770.12,1381.66 1754.45,1376.99 1739.5,1370C 1736.82,1368.16 1735.16,1365.66 1734.5,1362.5C 1790.37,1199.39 1846.54,1036.39 1903,873.5C 1909.14,856.09 1915.47,838.757 1922,821.5C 1924.16,815.992 1927.16,815.325 1931,819.5C 1939.06,839.009 1946.73,858.676 1954,878.5C 2012.15,1037.29 2069.32,1196.45 2125.5,1356C 2125.1,1357.47 2124.43,1358.81 2123.5,1360C 2119.78,1362.53 2115.78,1364.53 2111.5,1366C 2077.15,1376.34 2042.15,1384 2006.5,1389C 1974.86,1394.23 1943.19,1397.07 1911.5,1397.5 Z"/></g>
<g><path style="opacity:0.173" fill="#3b535e" d="M 2369.5,1202.5 C 2365.17,1208.83 2359.83,1214.17 2353.5,1218.5C 2358.5,1212.83 2363.83,1207.5 2369.5,1202.5 Z"/></g>
<g><path style="opacity:0.769" fill="#3b535e" d="M 2423.5,1231.5 C 2422.92,1233.75 2421.59,1235.42 2419.5,1236.5C 2420.08,1234.25 2421.41,1232.58 2423.5,1231.5 Z"/></g>
<g><path style="opacity:0.769" fill="#3b535e" d="M 1411.5,1237.5 C 1414.24,1239.24 1416.24,1241.57 1417.5,1244.5C 1414.76,1242.76 1412.76,1240.43 1411.5,1237.5 Z"/></g>
<g><path style="opacity:0.173" fill="#3b535e" d="M 1440.5,1267.5 C 1442.75,1268.08 1444.42,1269.41 1445.5,1271.5C 1443.25,1270.92 1441.58,1269.59 1440.5,1267.5 Z"/></g>
<g><path style="opacity:0.173" fill="#3b535e" d="M 2446.5,1271.5 C 2445.58,1274.09 2443.91,1276.09 2441.5,1277.5C 2442.42,1274.91 2444.09,1272.91 2446.5,1271.5 Z"/></g>
<g><path style="opacity:0.173" fill="#3b535d" d="M 2425.5,1293.5 C 2424.09,1295.91 2422.09,1297.58 2419.5,1298.5C 2420.91,1296.09 2422.91,1294.42 2425.5,1293.5 Z"/></g>
<g><path style="opacity:0.494" fill="#3e5058" d="M 1892.5,1396.5 C 1899.02,1396.18 1905.36,1396.51 1911.5,1397.5C 1905.1,1398.43 1898.77,1398.09 1892.5,1396.5 Z"/></g>
<g><path style="opacity:0.173" fill="#3d515a" d="M 1885.5,1457.5 C 1889.37,1457.19 1893.04,1457.52 1896.5,1458.5C 1892.7,1458.55 1889.2,1458.89 1886,1459.5C 1885.54,1458.91 1885.37,1458.24 1885.5,1457.5 Z"/></g>
<g><path style="opacity:0.494" fill="#3e4f57" d="M 1939.5,1458.5 C 1945.31,1457.51 1951.31,1457.18 1957.5,1457.5C 1951.56,1459.03 1945.56,1459.36 1939.5,1458.5 Z"/></g>
<g><path style="opacity:0.494" fill="#3f4f56" d="M 1953.5,1496.5 C 1958.98,1495.51 1964.64,1495.18 1970.5,1495.5C 1966.43,1496.19 1962.27,1496.86 1958,1497.5C 1956.64,1496.62 1955.14,1496.29 1953.5,1496.5 Z"/></g>
<g><path style="opacity:1" fill="#227498" d="M 461.5,1957.5 C 461.917,1958.12 462.584,1958.46 463.5,1958.5C 464.713,1958.25 465.38,1957.59 465.5,1956.5C 492.214,1882.19 518.047,1807.53 543,1732.5C 546.844,1721.81 551.511,1711.48 557,1701.5C 564.657,1688.66 572.657,1688.32 581,1700.5C 585.864,1709.56 590.197,1718.9 594,1728.5C 620.017,1806.25 646.184,1883.91 672.5,1961.5C 673.623,1962.76 674.289,1962.42 674.5,1960.5C 699.472,1898.42 720.972,1835.09 739,1770.5C 742.65,1757.99 743.65,1745.32 742,1732.5C 739.341,1726.51 734.841,1722.67 728.5,1721C 720.882,1719.63 713.215,1718.63 705.5,1718C 700.964,1717.4 696.63,1716.23 692.5,1714.5C 692.027,1713.09 691.027,1712.43 689.5,1712.5C 684.247,1706.37 684.247,1700.21 689.5,1694C 697.6,1691.3 705.933,1689.97 714.5,1690C 758.833,1689.33 803.167,1689.33 847.5,1690C 856.067,1689.97 864.4,1691.3 872.5,1694C 873.701,1694.9 874.535,1696.07 875,1697.5C 875.667,1701.5 875.667,1705.5 875,1709.5C 874.722,1710.42 874.222,1711.08 873.5,1711.5C 872.5,1711.83 871.833,1712.5 871.5,1713.5C 871.389,1714.12 871.056,1714.62 870.5,1715C 866.987,1715.93 863.487,1716.76 860,1717.5C 840.916,1714.19 824.583,1719.53 811,1733.5C 798.996,1750.5 789.329,1768.84 782,1788.5C 776.333,1803.5 770.667,1818.5 765,1833.5C 736.789,1918.13 707.789,2002.47 678,2086.5C 673.216,2098.74 667.883,2110.74 662,2122.5C 660.277,2125.73 657.777,2128.06 654.5,2129.5C 652.971,2129.47 651.804,2128.8 651,2127.5C 643.332,2114.49 636.999,2100.83 632,2086.5C 610.053,2022.72 588.72,1958.72 568,1894.5C 562.945,1880.06 557.611,1865.72 552,1851.5C 542.837,1870.31 534.837,1889.65 528,1909.5C 506.925,1972.39 485.259,2035.06 463,2097.5C 459.135,2107.56 454.468,2117.23 449,2126.5C 445.645,2131.31 441.979,2131.64 438,2127.5C 428.116,2108.52 419.782,2088.85 413,2068.5C 387.132,1990.56 361.465,1912.56 336,1834.5C 326.29,1804.7 314.623,1775.7 301,1747.5C 296.773,1739.78 291.607,1732.78 285.5,1726.5C 285.027,1725.09 284.027,1724.43 282.5,1724.5C 271.02,1718.37 258.687,1715.87 245.5,1717C 235.076,1715.15 231.243,1708.98 234,1698.5C 235.88,1694.53 239.047,1692.36 243.5,1692C 250.385,1691.16 257.219,1690.33 264,1689.5C 315.293,1689.34 366.793,1689.51 418.5,1690C 428.056,1689.92 437.39,1691.26 446.5,1694C 450.305,1698.09 451.472,1702.92 450,1708.5C 449.117,1711.1 447.617,1713.27 445.5,1715C 437.966,1716.9 430.299,1717.9 422.5,1718C 409.469,1720.59 398.969,1727.09 391,1737.5C 390.399,1739.14 389.899,1740.8 389.5,1742.5C 409.022,1810.92 430.855,1878.59 455,1945.5C 456.925,1949.69 459.092,1953.69 461.5,1957.5 Z"/></g>
<g><path style="opacity:0.494" fill="#3f4e55" d="M 1986.5,1690.5 C 2013.5,1689.17 2040.5,1689.17 2067.5,1690.5C 2040.66,1690.78 2013.66,1690.78 1986.5,1690.5 Z"/></g>
<g><path style="opacity:1" fill="#454646" d="M 2096.5,1690.5 C 2101.57,1691.19 2106.73,1691.85 2112,1692.5C 2117.2,1691.79 2123.03,1691.46 2129.5,1691.5C 2136.8,1691.14 2144.8,1691.14 2153.5,1691.5C 2161.45,1692.97 2169.45,1693.31 2177.5,1692.5C 2198.35,1691.89 2219.35,1693.72 2240.5,1698C 2275.31,1709.82 2301.15,1731.99 2318,1764.5C 2333.44,1805.88 2328.77,1844.88 2304,1881.5C 2287.79,1903.02 2266.62,1917.52 2240.5,1925C 2221.19,1930.73 2201.86,1933.57 2182.5,1933.5C 2160.5,1933.5 2138.5,1933.5 2116.5,1933.5C 2116.18,1937.7 2116.52,1941.7 2117.5,1945.5C 2118.77,1977.16 2120.27,2008.83 2122,2040.5C 2121.61,2058.57 2129.11,2072.07 2144.5,2081C 2157.76,2087.39 2171.76,2090.72 2186.5,2091C 2191.28,2093.73 2193.62,2097.9 2193.5,2103.5C 2193.2,2106.87 2191.87,2109.71 2189.5,2112C 2186.9,2112.98 2184.4,2114.14 2182,2115.5C 2178.32,2115.28 2174.48,2115.28 2170.5,2115.5C 2164.97,2115.18 2159.64,2115.51 2154.5,2116.5C 2149.34,2117.53 2144.67,2117.53 2140.5,2116.5C 2098.17,2116.5 2055.83,2116.5 2013.5,2116.5C 2009.65,2116.76 2005.65,2116.76 2001.5,2116.5C 1996.02,2115.51 1990.36,2115.18 1984.5,2115.5C 1977.05,2116.05 1970.22,2114.38 1964,2110.5C 1961.8,2104.68 1962.13,2099.02 1965,2093.5C 1967.54,2091.65 1970.38,2090.48 1973.5,2090C 1989.63,2090.89 2003.97,2086.39 2016.5,2076.5C 2019.83,2075.17 2022.17,2072.83 2023.5,2069.5C 2029.97,2060.95 2033.8,2051.28 2035,2040.5C 2037.96,2020.6 2039.96,2000.6 2041,1980.5C 2043.73,1917.1 2042.73,1853.77 2038,1790.5C 2037.04,1775.08 2034.04,1760.08 2029,1745.5C 2025.47,1734.92 2018.64,1727.42 2008.5,1723C 1996.39,1719.99 1984.23,1717.49 1972,1715.5C 1965.51,1714.11 1962.34,1709.78 1962.5,1702.5C 1962.11,1699.14 1963.11,1696.31 1965.5,1694C 1972.2,1691.13 1979.2,1689.97 1986.5,1690.5C 2013.66,1690.78 2040.66,1690.78 2067.5,1690.5C 2076.47,1690.22 2086.13,1690.22 2096.5,1690.5 Z M 2118.5,1730.5 C 2142.2,1729.5 2165.53,1731 2188.5,1735C 2206.83,1738.68 2220.66,1748.52 2230,1764.5C 2247.22,1797.57 2246.55,1830.23 2228,1862.5C 2220.92,1872.59 2211.75,1880.09 2200.5,1885C 2188.4,1888.72 2176.06,1891.22 2163.5,1892.5C 2148.5,1892.5 2133.5,1892.5 2118.5,1892.5C 2118.5,1838.5 2118.5,1784.5 2118.5,1730.5 Z"/></g>
<g><path style="opacity:0.494" fill="#3f4e56" d="M 2096.5,1690.5 C 2107.68,1690.17 2118.68,1690.51 2129.5,1691.5C 2123.03,1691.46 2117.2,1691.79 2112,1692.5C 2106.73,1691.85 2101.57,1691.19 2096.5,1690.5 Z"/></g>
<g><path style="opacity:0.494" fill="#3f4e55" d="M 2153.5,1691.5 C 2161.68,1691.17 2169.68,1691.51 2177.5,1692.5C 2169.45,1693.31 2161.45,1692.97 2153.5,1691.5 Z"/></g>
<g><path style="opacity:0.769" fill="#3b535e" d="M 689.5,1712.5 C 691.027,1712.43 692.027,1713.09 692.5,1714.5C 690.973,1714.57 689.973,1713.91 689.5,1712.5 Z"/></g>
<g><path style="opacity:0.173" fill="#3b535e" d="M 873.5,1711.5 C 873.5,1712.83 872.833,1713.5 871.5,1713.5C 871.833,1712.5 872.5,1711.83 873.5,1711.5 Z"/></g>
<g><path style="opacity:0.769" fill="#3b535e" d="M 282.5,1724.5 C 284.027,1724.43 285.027,1725.09 285.5,1726.5C 283.973,1726.57 282.973,1725.91 282.5,1724.5 Z"/></g>
<g><path style="opacity:1" fill="#454646" d="M 3082.5,1810.5 C 3085.83,1807.83 3088.83,1804.83 3091.5,1801.5C 3104.89,1788.68 3120.89,1780.85 3139.5,1778C 3162.97,1774.21 3186.3,1774.88 3209.5,1780C 3220.42,1784.05 3231.25,1788.21 3242,1792.5C 3243.44,1792.44 3244.77,1792.11 3246,1791.5C 3248.1,1784.79 3251.6,1778.95 3256.5,1774C 3269.32,1766.66 3276.82,1770.16 3279,1784.5C 3281,1816.17 3281,1847.83 3279,1879.5C 3278.77,1884.13 3277.27,1888.29 3274.5,1892C 3264.63,1895.46 3256.8,1892.3 3251,1882.5C 3244.6,1859.52 3232.1,1840.68 3213.5,1826C 3189.48,1809.1 3164.81,1808.1 3139.5,1823C 3119.99,1842.67 3121.33,1861 3143.5,1878C 3157,1886.25 3170.67,1894.25 3184.5,1902C 3208.15,1913.82 3231.48,1926.16 3254.5,1939C 3268.47,1946.97 3280.64,1957.13 3291,1969.5C 3301.97,1987 3307.14,2006.17 3306.5,2027C 3305.57,2064.88 3288.57,2092.88 3255.5,2111C 3219.22,2131.9 3181.89,2135.56 3143.5,2122C 3133.95,2117.72 3124.28,2113.72 3114.5,2110C 3110.38,2108.91 3106.22,2108.08 3102,2107.5C 3099.02,2107.66 3096.35,2108.66 3094,2110.5C 3092.1,2115.32 3090.77,2120.32 3090,2125.5C 3084.73,2130.25 3078.56,2131.75 3071.5,2130C 3070.07,2129.53 3068.9,2128.7 3068,2127.5C 3065.3,2120.78 3063.96,2113.78 3064,2106.5C 3063.33,2075.17 3063.33,2043.83 3064,2012.5C 3064.12,2005.69 3065.12,1999.02 3067,1992.5C 3072.7,1986.79 3079.2,1985.96 3086.5,1990C 3087.67,1991.17 3088.83,1992.33 3090,1993.5C 3092.21,2011.15 3098.55,2027.15 3109,2041.5C 3134.89,2080.47 3170.72,2094.97 3216.5,2085C 3243.3,2073.91 3251.13,2055.08 3240,2028.5C 3227.97,2015.4 3214.13,2004.56 3198.5,1996C 3170.18,1981.17 3142.18,1965.84 3114.5,1950C 3098.37,1939.87 3084.87,1927.03 3074,1911.5C 3064.81,1892.87 3061.48,1873.2 3064,1852.5C 3065.59,1836.33 3071.76,1822.33 3082.5,1810.5 Z"/></g>
<g><path style="opacity:1" fill="#454646" d="M 3477.5,1812.5 C 3472.17,1811.17 3466.83,1811.17 3461.5,1812.5C 3441,1817 3428,1829.33 3422.5,1849.5C 3422.93,1854.2 3424.43,1858.54 3427,1862.5C 3436.7,1873.21 3447.87,1882.04 3460.5,1889C 3489.69,1903.76 3518.69,1918.76 3547.5,1934C 3564.95,1944.64 3579.78,1958.14 3592,1974.5C 3602.85,1993.79 3606.85,2014.46 3604,2036.5C 3599.41,2081.75 3575.25,2110.59 3531.5,2123C 3510.45,2128.97 3489.12,2130.97 3467.5,2129C 3462.41,2128.48 3457.41,2127.48 3452.5,2126C 3439.75,2121.2 3427.09,2116.2 3414.5,2111C 3409.44,2109.35 3404.28,2108.19 3399,2107.5C 3396.1,2107.91 3393.43,2108.91 3391,2110.5C 3389.11,2114.61 3388.11,2118.94 3388,2123.5C 3384.98,2128.59 3380.48,2130.93 3374.5,2130.5C 3369.71,2131.36 3366.21,2129.69 3364,2125.5C 3362.1,2117.96 3361.1,2110.29 3361,2102.5C 3360.11,2069.15 3360.44,2035.82 3362,2002.5C 3362.88,1988.48 3369.72,1984.31 3382.5,1990C 3385.27,1992.38 3387.44,1995.22 3389,1998.5C 3397.54,2032.77 3416.71,2059.27 3446.5,2078C 3472.58,2092.3 3498.91,2092.96 3525.5,2080C 3543.2,2067.03 3547.37,2050.53 3538,2030.5C 3534.42,2025.2 3530.26,2020.37 3525.5,2016C 3515.02,2007.92 3504.02,2000.59 3492.5,1994C 3462.41,1979.79 3433.41,1963.79 3405.5,1946C 3358.09,1909.84 3348.92,1865.67 3378,1813.5C 3379.72,1810.71 3381.89,1808.38 3384.5,1806.5C 3387.17,1804.5 3389.5,1802.17 3391.5,1799.5C 3397.24,1793.79 3403.9,1789.29 3411.5,1786C 3435.99,1774.57 3460.99,1771.23 3486.5,1776C 3505.55,1779.64 3524.38,1784.14 3543,1789.5C 3545.15,1789.6 3546.98,1788.94 3548.5,1787.5C 3550.1,1772.2 3558.1,1767.37 3572.5,1773C 3575.65,1779.08 3577.15,1785.58 3577,1792.5C 3577.67,1818.17 3577.67,1843.83 3577,1869.5C 3576.84,1875.98 3575.84,1882.31 3574,1888.5C 3572.03,1891.99 3569.03,1893.99 3565,1894.5C 3559.26,1892.78 3554.6,1889.44 3551,1884.5C 3545.86,1873.41 3540.53,1862.41 3535,1851.5C 3521.13,1830.96 3501.96,1817.96 3477.5,1812.5 Z"/></g>
<g><path style="opacity:1" fill="#227498" d="M 1142.5,1827.5 C 1142.97,1828.91 1143.97,1829.57 1145.5,1829.5C 1148.83,1832.17 1151.83,1835.17 1154.5,1838.5C 1154.5,1839.83 1155.17,1840.5 1156.5,1840.5C 1170.7,1855.22 1182.2,1871.89 1191,1890.5C 1197.24,1909.32 1200.07,1928.65 1199.5,1948.5C 1200.05,1971.48 1196.55,1993.82 1189,2015.5C 1181.69,2031.96 1171.52,2046.29 1158.5,2058.5C 1157.09,2058.97 1156.43,2059.97 1156.5,2061.5C 1136.44,2084.05 1112.77,2101.88 1085.5,2115C 1068.3,2120.87 1050.63,2124.37 1032.5,2125.5C 1029.61,2125.19 1026.95,2125.53 1024.5,2126.5C 1003.8,2129.07 983.132,2129.07 962.5,2126.5C 961.081,2125.55 959.415,2125.22 957.5,2125.5C 923.078,2116.96 893.078,2100.63 867.5,2076.5C 867.027,2075.09 866.027,2074.43 864.5,2074.5C 859.5,2070.17 854.833,2065.5 850.5,2060.5C 850.573,2058.97 849.906,2057.97 848.5,2057.5C 821.048,2028.35 807.381,1993.52 807.5,1953C 808.504,1911.79 822.171,1875.63 848.5,1844.5C 849.906,1844.03 850.573,1843.03 850.5,1841.5C 852.5,1838.83 854.833,1836.5 857.5,1834.5C 858.5,1834.17 859.167,1833.5 859.5,1832.5C 860.5,1832.17 861.167,1831.5 861.5,1830.5C 900.003,1791.6 946.836,1772.93 1002,1774.5C 1052.66,1772.39 1097.16,1787.55 1135.5,1820C 1138.04,1822.37 1140.37,1824.87 1142.5,1827.5 Z M 1086.5,2055.5 C 1085.09,2055.97 1084.43,2056.97 1084.5,2058.5C 1071.63,2072.77 1055.63,2081.61 1036.5,2085C 1009.8,2090.51 983.47,2089.17 957.5,2081C 942.341,2074.18 929.841,2064.01 920,2050.5C 885.332,1995.48 880.332,1937.81 905,1877.5C 911.404,1863.29 919.904,1850.63 930.5,1839.5C 931.833,1838.83 932.833,1837.83 933.5,1836.5C 948.175,1823.31 965.508,1815.81 985.5,1814C 1050.49,1806.21 1092.32,1833.37 1111,1895.5C 1124.88,1945.69 1120.21,1994.02 1097,2040.5C 1093.49,2045.53 1089.99,2050.53 1086.5,2055.5 Z"/></g>
<g><path style="opacity:1" fill="#227498" d="M 1444.5,1973.5 C 1442.9,1973.23 1441.57,1973.57 1440.5,1974.5C 1438.75,1974.42 1437.75,1975.25 1437.5,1977C 1438.32,1978.8 1438.99,1980.63 1439.5,1982.5C 1439.43,1984.03 1440.09,1985.03 1441.5,1985.5C 1448.76,1994.77 1456.43,2003.77 1464.5,2012.5C 1464.43,2014.03 1465.09,2015.03 1466.5,2015.5C 1474.17,2022.5 1481.5,2029.83 1488.5,2037.5C 1488.97,2038.91 1489.97,2039.57 1491.5,2039.5C 1505.8,2053.3 1521.13,2065.8 1537.5,2077C 1560.7,2088.22 1584.7,2091.55 1609.5,2087C 1614.58,2085.62 1619.25,2083.46 1623.5,2080.5C 1625.5,2080.5 1626.5,2079.5 1626.5,2077.5C 1629.61,2070.19 1631.44,2062.52 1632,2054.5C 1632.97,2043.19 1633.64,2031.85 1634,2020.5C 1634.67,1969.17 1634.67,1917.83 1634,1866.5C 1633.98,1855.01 1632.65,1843.67 1630,1832.5C 1627.73,1826.73 1623.9,1822.4 1618.5,1819.5C 1618.03,1818.09 1617.03,1817.43 1615.5,1817.5C 1605.94,1813.98 1596.11,1811.98 1586,1811.5C 1572.63,1811.51 1567.96,1804.84 1572,1791.5C 1576.2,1788.23 1581.04,1786.4 1586.5,1786C 1635.19,1784.56 1683.69,1784.06 1732,1784.5C 1762,1785.56 1791.84,1788.73 1821.5,1794C 1905.45,1812.59 1949.45,1864.59 1953.5,1950C 1951.34,2018.07 1920,2067.07 1859.5,2097C 1839.92,2104.98 1819.59,2109.98 1798.5,2112C 1778.23,2114.29 1757.9,2115.45 1737.5,2115.5C 1728.32,2115.17 1719.32,2115.51 1710.5,2116.5C 1702.13,2116.88 1694.47,2116.88 1687.5,2116.5C 1613.83,2116.5 1540.17,2116.5 1466.5,2116.5C 1463.45,2114.45 1461.12,2111.78 1459.5,2108.5C 1459.57,2106.97 1458.91,2105.97 1457.5,2105.5C 1454.15,2102.15 1451.15,2098.48 1448.5,2094.5C 1448.57,2092.97 1447.91,2091.97 1446.5,2091.5C 1424.58,2063.57 1402.24,2035.9 1379.5,2008.5C 1379.57,2006.97 1378.91,2005.97 1377.5,2005.5C 1375.83,2004.5 1374.5,2003.17 1373.5,2001.5C 1373.26,1999.6 1372.26,1998.26 1370.5,1997.5C 1368.17,1995.83 1366.17,1993.83 1364.5,1991.5C 1364.26,1989.6 1363.26,1988.26 1361.5,1987.5C 1361.17,1986.5 1360.5,1985.83 1359.5,1985.5C 1358.74,1983.74 1357.4,1982.74 1355.5,1982.5C 1354.6,1981.4 1353.77,1981.4 1353,1982.5C 1347.06,2008.14 1347.06,2033.81 1353,2059.5C 1354.75,2066.63 1357.92,2072.96 1362.5,2078.5C 1362.5,2080.5 1363.5,2081.5 1365.5,2081.5C 1368.14,2083.82 1371.14,2085.66 1374.5,2087C 1383.79,2088.75 1393.12,2090.08 1402.5,2091C 1407.71,2093.41 1410.05,2097.58 1409.5,2103.5C 1410.04,2108.93 1407.7,2112.43 1402.5,2114C 1391.35,2115.8 1380.18,2116.96 1369,2117.5C 1367.86,2117.38 1366.69,2117.05 1365.5,2116.5C 1329.5,2116.5 1293.5,2116.5 1257.5,2116.5C 1256.85,2116.8 1256.18,2117.14 1255.5,2117.5C 1247.88,2116.7 1240.22,2116.2 1232.5,2116C 1226.29,2115.82 1220.46,2114.32 1215,2111.5C 1212.03,2106.37 1211.69,2101.03 1214,2095.5C 1215.54,2093.62 1217.38,2092.12 1219.5,2091C 1228.48,2089.92 1237.48,2088.92 1246.5,2088C 1254.61,2085.87 1260.44,2081.04 1264,2073.5C 1267.1,2065.43 1269.1,2057.1 1270,2048.5C 1271.77,2032.55 1272.77,2016.55 1273,2000.5C 1273.87,1953.82 1273.54,1907.16 1272,1860.5C 1273.04,1842.37 1266.21,1828.37 1251.5,1818.5C 1251.16,1817.66 1250.49,1817.33 1249.5,1817.5C 1240.28,1813.52 1230.62,1811.35 1220.5,1811C 1214.66,1808.5 1211.99,1804 1212.5,1797.5C 1212.43,1790.73 1215.77,1786.9 1222.5,1786C 1287.81,1783.98 1353.14,1784.98 1418.5,1789C 1451.58,1790.96 1478.74,1804.46 1500,1829.5C 1522.89,1862.98 1524.22,1897.31 1504,1932.5C 1489.19,1953.48 1469.35,1967.15 1444.5,1973.5 Z M 1408.5,1829.5 C 1408.41,1831.7 1409.08,1832.03 1410.5,1830.5C 1412.2,1832.19 1414.2,1833.53 1416.5,1834.5C 1416.97,1835.91 1417.97,1836.57 1419.5,1836.5C 1419.83,1837.5 1420.5,1838.17 1421.5,1838.5C 1421.97,1839.91 1422.97,1840.57 1424.5,1840.5C 1425.5,1842.17 1426.83,1843.5 1428.5,1844.5C 1428.43,1846.03 1429.09,1847.03 1430.5,1847.5C 1446.53,1869.45 1447.53,1892.12 1433.5,1915.5C 1432.09,1915.97 1431.43,1916.97 1431.5,1918.5C 1418.76,1935.21 1401.76,1944.04 1380.5,1945C 1369.84,1946.33 1359.18,1947.5 1348.5,1948.5C 1348.5,1904.83 1348.5,1861.17 1348.5,1817.5C 1362.22,1818.91 1375.88,1820.75 1389.5,1823C 1396.03,1824.68 1402.37,1826.84 1408.5,1829.5 Z M 1717.5,1817.5 C 1742.75,1819.62 1767.75,1823.45 1792.5,1829C 1804.55,1831.7 1815.55,1836.53 1825.5,1843.5C 1825.97,1844.91 1826.97,1845.57 1828.5,1845.5C 1850.86,1869.7 1863.7,1898.37 1867,1931.5C 1869.73,1960.9 1866.39,1989.57 1857,2017.5C 1841.57,2052.49 1814.73,2072.33 1776.5,2077C 1761.54,2079.73 1746.54,2080.06 1731.5,2078C 1722.46,2076.29 1717.63,2070.79 1717,2061.5C 1714.94,2042.62 1713.77,2023.95 1713.5,2005.5C 1713.5,1942.83 1713.5,1880.17 1713.5,1817.5C 1714.83,1817.5 1716.17,1817.5 1717.5,1817.5 Z"/></g>
<g><path style="opacity:1" fill="#454646" d="M 2407.5,1784.5 C 2418.06,1786.15 2428.39,1786.48 2438.5,1785.5C 2445.41,1785.25 2452.74,1785.25 2460.5,1785.5C 2463.9,1786.2 2467.4,1786.86 2471,1787.5C 2475.2,1786.77 2479.7,1786.44 2484.5,1786.5C 2486.96,1786.21 2489.62,1786.21 2492.5,1786.5C 2497.57,1787.19 2502.73,1787.85 2508,1788.5C 2509.7,1787.59 2511.53,1787.26 2513.5,1787.5C 2534.19,1787.36 2554.86,1789.2 2575.5,1793C 2599.59,1799.76 2619.43,1812.93 2635,1832.5C 2652.57,1860.35 2655.24,1889.68 2643,1920.5C 2638.2,1931.44 2631.7,1941.1 2623.5,1949.5C 2621.25,1950.08 2619.58,1951.41 2618.5,1953.5C 2612.43,1960.04 2605.09,1964.87 2596.5,1968C 2586.26,1971.05 2575.93,1973.71 2565.5,1976C 2584.72,1999.56 2605.06,2022.23 2626.5,2044C 2644.34,2060.5 2664.34,2073.83 2686.5,2084C 2696.81,2088.05 2707.48,2089.72 2718.5,2089C 2737.09,2085.07 2747.26,2073.57 2749,2054.5C 2750.75,2040.22 2751.75,2025.89 2752,2011.5C 2752.67,1966.83 2752.67,1922.17 2752,1877.5C 2751.8,1866.09 2750.8,1854.76 2749,1843.5C 2745.02,1829.52 2736.19,1820.02 2722.5,1815C 2715.98,1812.76 2709.48,1811.92 2703,1812.5C 2692.57,1808.93 2689.4,1801.93 2693.5,1791.5C 2695.34,1790.08 2697.34,1788.91 2699.5,1788C 2709.95,1785.95 2720.28,1785.12 2730.5,1785.5C 2734.11,1785.21 2737.61,1785.54 2741,1786.5C 2750.6,1785.85 2760.1,1785.18 2769.5,1784.5C 2840.17,1784.33 2910.83,1784.5 2981.5,1785C 2986.37,1817.62 2988.54,1850.45 2988,1883.5C 2984.56,1887.65 2980.4,1888.49 2975.5,1886C 2970.04,1881.92 2965.87,1876.75 2963,1870.5C 2960.79,1862 2958.13,1853.67 2955,1845.5C 2948.53,1836.34 2939.7,1830.84 2928.5,1829C 2895,1823.7 2861.34,1819.86 2827.5,1817.5C 2827.5,1853.83 2827.5,1890.17 2827.5,1926.5C 2841.24,1924.85 2854.91,1922.68 2868.5,1920C 2892.18,1914.16 2903.35,1898.99 2902,1874.5C 2902.83,1869.67 2905.67,1866.83 2910.5,1866C 2916.08,1864.53 2920.91,1865.7 2925,1869.5C 2926.63,1874.03 2927.63,1878.7 2928,1883.5C 2930,1923.83 2930,1964.17 2928,2004.5C 2928.05,2021.58 2920.38,2026.58 2905,2019.5C 2903.72,2017.28 2902.72,2014.95 2902,2012.5C 2903.82,1985.61 2891.65,1969.11 2865.5,1963C 2852.88,1961.63 2840.21,1961.13 2827.5,1961.5C 2827.29,1984.52 2827.79,2007.52 2829,2030.5C 2829.61,2042.49 2833.11,2053.49 2839.5,2063.5C 2840.17,2066.17 2841.83,2067.83 2844.5,2068.5C 2853.59,2074.42 2863.59,2077.75 2874.5,2078.5C 2877.56,2079.2 2880.73,2079.87 2884,2080.5C 2890.82,2079.5 2897.16,2079.5 2903,2080.5C 2907.27,2079.86 2911.43,2079.19 2915.5,2078.5C 2925.2,2077.72 2934.87,2076.55 2944.5,2075C 2954.81,2072.77 2963.31,2067.6 2970,2059.5C 2974.62,2048.96 2979.62,2038.63 2985,2028.5C 2990.9,2021.63 2998.07,2019.8 3006.5,2023C 3008.85,2025.13 3009.85,2027.8 3009.5,2031C 3006.8,2046.77 3004.8,2062.6 3003.5,2078.5C 3002.5,2090.99 3002.17,2103.66 3002.5,2116.5C 2984.83,2116.5 2967.17,2116.5 2949.5,2116.5C 2910.17,2116.5 2870.83,2116.5 2831.5,2116.5C 2805.55,2117.31 2779.71,2117.64 2754,2117.5C 2700.57,2116.67 2647.07,2116.17 2593.5,2116C 2562.09,2075.26 2529.93,2035.09 2497,1995.5C 2492.3,1990.47 2487.3,1985.8 2482,1981.5C 2479.61,1983.62 2478.27,1986.29 2478,1989.5C 2476.22,2020.8 2481.55,2050.8 2494,2079.5C 2497.51,2083.68 2502.01,2086.18 2507.5,2087C 2517.48,2088.54 2527.48,2089.87 2537.5,2091C 2543.16,2094.63 2545.32,2099.79 2544,2106.5C 2543.55,2108.52 2542.72,2110.35 2541.5,2112C 2536.23,2114.66 2530.56,2115.83 2524.5,2115.5C 2519.31,2115.18 2514.31,2115.51 2509.5,2116.5C 2505.08,2117.1 2501.08,2117.1 2497.5,2116.5C 2460.83,2116.5 2424.17,2116.5 2387.5,2116.5C 2384.23,2117.28 2380.56,2117.28 2376.5,2116.5C 2371.36,2115.51 2366.03,2115.18 2360.5,2115.5C 2353.71,2115.93 2347.55,2114.26 2342,2110.5C 2340.08,2105.52 2340.08,2100.52 2342,2095.5C 2343.23,2093.27 2345.06,2091.77 2347.5,2091C 2359.08,2090.41 2370.42,2088.41 2381.5,2085C 2386.89,2082.94 2391.05,2079.44 2394,2074.5C 2399.24,2060.63 2402.57,2046.3 2404,2031.5C 2409.11,1973.77 2408.44,1916.1 2402,1858.5C 2400.52,1847.24 2397.19,1836.57 2392,1826.5C 2386.91,1818.76 2379.75,1814.26 2370.5,1813C 2361.78,1812.8 2353.44,1811.8 2345.5,1810C 2340.2,1803.84 2339.2,1797 2342.5,1789.5C 2346.65,1786.51 2351.32,1785.01 2356.5,1785C 2373.5,1784.5 2390.5,1784.33 2407.5,1784.5 Z M 2506.5,1946.5 C 2496.5,1946.5 2486.5,1946.5 2476.5,1946.5C 2476.5,1916.83 2476.5,1887.17 2476.5,1857.5C 2476.66,1846.62 2478.16,1835.96 2481,1825.5C 2484.03,1819.99 2488.69,1817.32 2495,1817.5C 2512,1820.21 2528.5,1824.71 2544.5,1831C 2565.59,1844.68 2575.42,1864.18 2574,1889.5C 2571.54,1912.61 2559.71,1928.77 2538.5,1938C 2528.04,1941.78 2517.38,1944.61 2506.5,1946.5 Z"/></g>
<g><path style="opacity:0.494" fill="#3f4e55" d="M 2407.5,1784.5 C 2418.01,1784.17 2428.35,1784.51 2438.5,1785.5C 2428.39,1786.48 2418.06,1786.15 2407.5,1784.5 Z"/></g>
<g><path style="opacity:0.494" fill="#3f4e55" d="M 2730.5,1785.5 C 2743.32,1784.5 2756.32,1784.17 2769.5,1784.5C 2760.1,1785.18 2750.6,1785.85 2741,1786.5C 2737.61,1785.54 2734.11,1785.21 2730.5,1785.5 Z"/></g>
<g><path style="opacity:0.494" fill="#3f4e56" d="M 2460.5,1785.5 C 2468.68,1785.17 2476.68,1785.51 2484.5,1786.5C 2479.7,1786.44 2475.2,1786.77 2471,1787.5C 2467.4,1786.86 2463.9,1786.2 2460.5,1785.5 Z"/></g>
<g><path style="opacity:0.494" fill="#3e4f57" d="M 2492.5,1786.5 C 2499.69,1786.18 2506.69,1786.51 2513.5,1787.5C 2511.53,1787.26 2509.7,1787.59 2508,1788.5C 2502.73,1787.85 2497.57,1787.19 2492.5,1786.5 Z"/></g>
<g><path style="opacity:0.769" fill="#3b535f" d="M 3391.5,1799.5 C 3389.5,1802.17 3387.17,1804.5 3384.5,1806.5C 3385.83,1803.17 3388.17,1800.83 3391.5,1799.5 Z"/></g>
<g><path style="opacity:0.769" fill="#3b535f" d="M 3091.5,1801.5 C 3088.83,1804.83 3085.83,1807.83 3082.5,1810.5C 3084.5,1806.5 3087.5,1803.5 3091.5,1801.5 Z"/></g>
<g><path style="opacity:0.494" fill="#3f4d54" d="M 3461.5,1812.5 C 3466.83,1811.17 3472.17,1811.17 3477.5,1812.5C 3471.99,1812.68 3466.65,1812.68 3461.5,1812.5 Z"/></g>
<g><path style="opacity:0.769" fill="#3d515a" d="M 1717.5,1817.5 C 1716.17,1817.5 1714.83,1817.5 1713.5,1817.5C 1713.5,1880.17 1713.5,1942.83 1713.5,2005.5C 1712.5,1942.67 1712.17,1879.67 1712.5,1816.5C 1714.41,1816.22 1716.08,1816.55 1717.5,1817.5 Z"/></g>
<g><path style="opacity:0.173" fill="#3b535d" d="M 1249.5,1817.5 C 1250.49,1817.33 1251.16,1817.66 1251.5,1818.5C 1250.08,1820.03 1249.41,1819.7 1249.5,1817.5 Z"/></g>
<g><path style="opacity:0.173" fill="#3c525c" d="M 1615.5,1817.5 C 1617.03,1817.43 1618.03,1818.09 1618.5,1819.5C 1616.97,1819.57 1615.97,1818.91 1615.5,1817.5 Z"/></g>
<g><path style="opacity:0.173" fill="#3b535e" d="M 1142.5,1827.5 C 1144.03,1827.43 1145.03,1828.09 1145.5,1829.5C 1143.97,1829.57 1142.97,1828.91 1142.5,1827.5 Z"/></g>
<g><path style="opacity:0.173" fill="#3b535d" d="M 1408.5,1829.5 C 1409.49,1829.33 1410.16,1829.66 1410.5,1830.5C 1409.08,1832.03 1408.41,1831.7 1408.5,1829.5 Z"/></g>
<g><path style="opacity:0.769" fill="#3b535f" d="M 861.5,1830.5 C 861.167,1831.5 860.5,1832.17 859.5,1832.5C 859.5,1831.17 860.167,1830.5 861.5,1830.5 Z"/></g>
<g><path style="opacity:0.769" fill="#3b535f" d="M 859.5,1832.5 C 859.167,1833.5 858.5,1834.17 857.5,1834.5C 857.5,1833.17 858.167,1832.5 859.5,1832.5 Z"/></g>
<g><path style="opacity:0.769" fill="#3b535e" d="M 1416.5,1834.5 C 1418.03,1834.43 1419.03,1835.09 1419.5,1836.5C 1417.97,1836.57 1416.97,1835.91 1416.5,1834.5 Z"/></g>
<g><path style="opacity:0.173" fill="#3b535d" d="M 933.5,1836.5 C 932.833,1837.83 931.833,1838.83 930.5,1839.5C 930.5,1837.5 931.5,1836.5 933.5,1836.5 Z"/></g>
<g><path style="opacity:0.769" fill="#3b535e" d="M 1421.5,1838.5 C 1423.03,1838.43 1424.03,1839.09 1424.5,1840.5C 1422.97,1840.57 1421.97,1839.91 1421.5,1838.5 Z"/></g>
<g><path style="opacity:0.769" fill="#3b535e" d="M 1154.5,1838.5 C 1155.5,1838.83 1156.17,1839.5 1156.5,1840.5C 1155.17,1840.5 1154.5,1839.83 1154.5,1838.5 Z"/></g>
<g><path style="opacity:0.769" fill="#3b535e" d="M 850.5,1841.5 C 850.573,1843.03 849.906,1844.03 848.5,1844.5C 848.427,1842.97 849.094,1841.97 850.5,1841.5 Z"/></g>
<g><path style="opacity:0.769" fill="#3b535e" d="M 1825.5,1843.5 C 1827.03,1843.43 1828.03,1844.09 1828.5,1845.5C 1826.97,1845.57 1825.97,1844.91 1825.5,1843.5 Z"/></g>
<g><path style="opacity:0.173" fill="#3b535e" d="M 1428.5,1844.5 C 1429.91,1844.97 1430.57,1845.97 1430.5,1847.5C 1429.09,1847.03 1428.43,1846.03 1428.5,1844.5 Z"/></g>
<g><path style="opacity:0.769" fill="#3b535f" d="M 2476.5,1857.5 C 2476.5,1887.17 2476.5,1916.83 2476.5,1946.5C 2486.5,1946.5 2496.5,1946.5 2506.5,1946.5C 2496.35,1947.49 2486.01,1947.83 2475.5,1947.5C 2475.17,1917.33 2475.5,1887.33 2476.5,1857.5 Z"/></g>
<g><path style="opacity:0.494" fill="#3d5059" d="M 2118.5,1730.5 C 2118.5,1784.5 2118.5,1838.5 2118.5,1892.5C 2133.5,1892.5 2148.5,1892.5 2163.5,1892.5C 2159.77,1893.2 2155.94,1893.86 2152,1894.5C 2140.61,1894.73 2129.11,1894.39 2117.5,1893.5C 2117.17,1839 2117.5,1784.66 2118.5,1730.5 Z"/></g>
<g><path style="opacity:0.769" fill="#3b535e" d="M 1433.5,1915.5 C 1433.57,1917.03 1432.91,1918.03 1431.5,1918.5C 1431.43,1916.97 1432.09,1915.97 1433.5,1915.5 Z"/></g>
<g><path style="opacity:0.494" fill="#3e4f57" d="M 2182.5,1933.5 C 2161.01,1934.5 2139.34,1934.83 2117.5,1934.5C 2117.5,1938.17 2117.5,1941.83 2117.5,1945.5C 2116.52,1941.7 2116.18,1937.7 2116.5,1933.5C 2138.5,1933.5 2160.5,1933.5 2182.5,1933.5 Z"/></g>
<g><path style="opacity:0.173" fill="#3b535d" d="M 2623.5,1949.5 C 2622.42,1951.59 2620.75,1952.92 2618.5,1953.5C 2619.58,1951.41 2621.25,1950.08 2623.5,1949.5 Z"/></g>
<g><path style="opacity:0.769" fill="#3b535e" d="M 465.5,1956.5 C 465.38,1957.59 464.713,1958.25 463.5,1958.5C 462.584,1958.46 461.917,1958.12 461.5,1957.5C 462.959,1957.57 464.292,1957.23 465.5,1956.5 Z"/></g>
<g><path style="opacity:0.769" fill="#3b535e" d="M 674.5,1960.5 C 674.289,1962.42 673.623,1962.76 672.5,1961.5C 673.167,1961.17 673.833,1960.83 674.5,1960.5 Z"/></g>
<g><path style="opacity:0.173" fill="#3c515b" d="M 1444.5,1973.5 C 1443.47,1974.25 1442.3,1974.92 1441,1975.5C 1440.6,1975.27 1440.43,1974.94 1440.5,1974.5C 1441.57,1973.57 1442.9,1973.23 1444.5,1973.5 Z"/></g>
<g><path style="opacity:0.769" fill="#3b535e" d="M 1355.5,1982.5 C 1357.4,1982.74 1358.74,1983.74 1359.5,1985.5C 1357.6,1985.26 1356.26,1984.26 1355.5,1982.5 Z"/></g>
<g><path style="opacity:0.769" fill="#3b535e" d="M 1439.5,1982.5 C 1440.91,1982.97 1441.57,1983.97 1441.5,1985.5C 1440.09,1985.03 1439.43,1984.03 1439.5,1982.5 Z"/></g>
<g><path style="opacity:0.173" fill="#3b535e" d="M 1359.5,1985.5 C 1360.5,1985.83 1361.17,1986.5 1361.5,1987.5C 1360.17,1987.5 1359.5,1986.83 1359.5,1985.5 Z"/></g>
<g><path style="opacity:0.173" fill="#3b535e" d="M 1361.5,1987.5 C 1363.26,1988.26 1364.26,1989.6 1364.5,1991.5C 1362.74,1990.74 1361.74,1989.4 1361.5,1987.5 Z"/></g>
<g><path style="opacity:0.173" fill="#3b535e" d="M 1370.5,1997.5 C 1372.26,1998.26 1373.26,1999.6 1373.5,2001.5C 1371.74,2000.74 1370.74,1999.4 1370.5,1997.5 Z"/></g>
<g><path style="opacity:0.173" fill="#3b535e" d="M 1377.5,2005.5 C 1378.91,2005.97 1379.57,2006.97 1379.5,2008.5C 1378.09,2008.03 1377.43,2007.03 1377.5,2005.5 Z"/></g>
<g><path style="opacity:0.769" fill="#3b535e" d="M 1464.5,2012.5 C 1465.91,2012.97 1466.57,2013.97 1466.5,2015.5C 1465.09,2015.03 1464.43,2014.03 1464.5,2012.5 Z"/></g>
<g><path style="opacity:0.173" fill="#3b535e" d="M 1488.5,2037.5 C 1490.03,2037.43 1491.03,2038.09 1491.5,2039.5C 1489.97,2039.57 1488.97,2038.91 1488.5,2037.5 Z"/></g>
<g><path style="opacity:0.769" fill="#3b535e" d="M 1086.5,2055.5 C 1086.57,2057.03 1085.91,2058.03 1084.5,2058.5C 1084.43,2056.97 1085.09,2055.97 1086.5,2055.5 Z"/></g>
<g><path style="opacity:0.173" fill="#3b535e" d="M 848.5,2057.5 C 849.906,2057.97 850.573,2058.97 850.5,2060.5C 849.094,2060.03 848.427,2059.03 848.5,2057.5 Z"/></g>
<g><path style="opacity:0.173" fill="#3b535e" d="M 1158.5,2058.5 C 1158.57,2060.03 1157.91,2061.03 1156.5,2061.5C 1156.43,2059.97 1157.09,2058.97 1158.5,2058.5 Z"/></g>
<g><path style="opacity:0.769" fill="#3b535e" d="M 2839.5,2063.5 C 2841.5,2064.83 2843.17,2066.5 2844.5,2068.5C 2841.83,2067.83 2840.17,2066.17 2839.5,2063.5 Z"/></g>
<g><path style="opacity:0.769" fill="#3b535e" d="M 2023.5,2069.5 C 2022.17,2072.83 2019.83,2075.17 2016.5,2076.5C 2018.5,2073.83 2020.83,2071.5 2023.5,2069.5 Z"/></g>
<g><path style="opacity:0.769" fill="#3b535e" d="M 864.5,2074.5 C 866.027,2074.43 867.027,2075.09 867.5,2076.5C 865.973,2076.57 864.973,2075.91 864.5,2074.5 Z"/></g>
<g><path style="opacity:0.494" fill="#3f4e56" d="M 2874.5,2078.5 C 2888.17,2078.5 2901.83,2078.5 2915.5,2078.5C 2911.43,2079.19 2907.27,2079.86 2903,2080.5C 2897.16,2079.5 2890.82,2079.5 2884,2080.5C 2880.73,2079.87 2877.56,2079.2 2874.5,2078.5 Z"/></g>
<g><path style="opacity:0.769" fill="#3b535e" d="M 1362.5,2078.5 C 1363.83,2079.17 1364.83,2080.17 1365.5,2081.5C 1363.5,2081.5 1362.5,2080.5 1362.5,2078.5 Z"/></g>
<g><path style="opacity:0.769" fill="#3b535e" d="M 1626.5,2077.5 C 1626.5,2079.5 1625.5,2080.5 1623.5,2080.5C 1624.17,2079.17 1625.17,2078.17 1626.5,2077.5 Z"/></g>
<g><path style="opacity:0.173" fill="#3b535e" d="M 1446.5,2091.5 C 1447.91,2091.97 1448.57,2092.97 1448.5,2094.5C 1447.09,2094.03 1446.43,2093.03 1446.5,2091.5 Z"/></g>
<g><path style="opacity:0.173" fill="#3b535e" d="M 1457.5,2105.5 C 1458.91,2105.97 1459.57,2106.97 1459.5,2108.5C 1458.09,2108.03 1457.43,2107.03 1457.5,2105.5 Z"/></g>
<g><path style="opacity:0.173" fill="#3d515b" d="M 1710.5,2116.5 C 1719.32,2115.51 1728.32,2115.17 1737.5,2115.5C 1729.77,2116.18 1721.93,2116.85 1714,2117.5C 1712.86,2117.38 1711.69,2117.05 1710.5,2116.5 Z"/></g>
<g><path style="opacity:0.494" fill="#3e4f57" d="M 1984.5,2115.5 C 1990.36,2115.18 1996.02,2115.51 2001.5,2116.5C 1998.3,2116.52 1995.47,2116.85 1993,2117.5C 1990.06,2116.87 1987.23,2116.21 1984.5,2115.5 Z"/></g>
<g><path style="opacity:0.494" fill="#3e4f57" d="M 2154.5,2116.5 C 2159.64,2115.51 2164.97,2115.18 2170.5,2115.5C 2165.22,2116.89 2159.89,2117.23 2154.5,2116.5 Z"/></g>
<g><path style="opacity:0.494" fill="#3e4f57" d="M 2360.5,2115.5 C 2366.03,2115.18 2371.36,2115.51 2376.5,2116.5C 2371.1,2117.55 2365.76,2117.22 2360.5,2115.5 Z"/></g>
<g><path style="opacity:0.494" fill="#3e4f57" d="M 2509.5,2116.5 C 2514.31,2115.51 2519.31,2115.18 2524.5,2115.5C 2519.57,2117.07 2514.57,2117.41 2509.5,2116.5 Z"/></g>
<g><path style="opacity:0.494" fill="#3f4e55" d="M 1257.5,2116.5 C 1293.5,2116.5 1329.5,2116.5 1365.5,2116.5C 1362.1,2117.2 1358.6,2117.86 1355,2118.5C 1325.67,2117.17 1296.33,2117.17 1267,2118.5C 1263.73,2117.87 1260.56,2117.2 1257.5,2116.5 Z"/></g>
<g><path style="opacity:0.494" fill="#404d53" d="M 1466.5,2116.5 C 1540.17,2116.5 1613.83,2116.5 1687.5,2116.5C 1682.43,2117.19 1677.27,2117.85 1672,2118.5C 1603.4,2117.83 1534.9,2117.17 1466.5,2116.5 Z"/></g>
<g><path style="opacity:0.494" fill="#3f4e55" d="M 2013.5,2116.5 C 2055.83,2116.5 2098.17,2116.5 2140.5,2116.5C 2138.11,2117.21 2135.61,2117.88 2133,2118.5C 2096.33,2117.17 2059.67,2117.17 2023,2118.5C 2019.73,2117.87 2016.56,2117.2 2013.5,2116.5 Z"/></g>
<g><path style="opacity:0.494" fill="#3f4e54" d="M 2387.5,2116.5 C 2424.17,2116.5 2460.83,2116.5 2497.5,2116.5C 2494.44,2117.2 2491.27,2117.87 2488,2118.5C 2457.33,2117.17 2426.67,2117.17 2396,2118.5C 2393.06,2117.87 2390.23,2117.21 2387.5,2116.5 Z"/></g>
<g><path style="opacity:0.173" fill="#3c515b" d="M 2831.5,2116.5 C 2870.83,2116.5 2910.17,2116.5 2949.5,2116.5C 2949.5,2116.83 2949.5,2117.17 2949.5,2117.5C 2921.75,2118.31 2895.92,2118.65 2872,2118.5C 2858.4,2117.84 2844.9,2117.17 2831.5,2116.5 Z"/></g>
<g><path style="opacity:0.494" fill="#404c52" d="M 3003.5,2078.5 C 3003.5,2091.5 3003.5,2104.5 3003.5,2117.5C 2985.5,2117.5 2967.5,2117.5 2949.5,2117.5C 2949.5,2117.17 2949.5,2116.83 2949.5,2116.5C 2967.17,2116.5 2984.83,2116.5 3002.5,2116.5C 3002.17,2103.66 3002.5,2090.99 3003.5,2078.5 Z"/></g>
<g><path style="opacity:0.173" fill="#3c525b" d="M 957.5,2125.5 C 959.415,2125.22 961.081,2125.55 962.5,2126.5C 961.178,2126.33 960.011,2126.66 959,2127.5C 958.283,2126.96 957.783,2126.29 957.5,2125.5 Z"/></g>
<g><path style="opacity:0.173" fill="#3c515b" d="M 1032.5,2125.5 C 1030.11,2126.21 1027.61,2126.88 1025,2127.5C 1024.6,2127.27 1024.43,2126.94 1024.5,2126.5C 1026.95,2125.53 1029.61,2125.19 1032.5,2125.5 Z"/></g>
</svg>
